G04 #@! TF.GenerationSoftware,KiCad,Pcbnew,9.0.7*
G04 #@! TF.CreationDate,2026-01-15T18:53:01-08:00*
G04 #@! TF.ProjectId,encoders,656e636f-6465-4727-932e-6b696361645f,rev?*
G04 #@! TF.SameCoordinates,Original*
G04 #@! TF.FileFunction,Legend,Top*
G04 #@! TF.FilePolarity,Positive*
%FSLAX46Y46*%
G04 Gerber Fmt 4.6, Leading zero omitted, Abs format (unit mm)*
G04 Created by KiCad (PCBNEW 9.0.7) date 2026-01-15 18:53:01*
%MOMM*%
%LPD*%
G01*
G04 APERTURE LIST*
%ADD10C,0.150000*%
%ADD11C,0.120000*%
G04 APERTURE END LIST*
D10*
X140955826Y-84795057D02*
X140955826Y-85747438D01*
X140289160Y-83747438D02*
X140955826Y-84795057D01*
X140955826Y-84795057D02*
X141622493Y-83747438D01*
X111884398Y-83247438D02*
X113217731Y-85247438D01*
X113217731Y-83247438D02*
X111884398Y-85247438D01*
X118884398Y-72747438D02*
X120217731Y-72747438D01*
X120217731Y-72747438D02*
X118884398Y-74747438D01*
X118884398Y-74747438D02*
X120217731Y-74747438D01*
X123360588Y-76917438D02*
X123265350Y-76869819D01*
X123265350Y-76869819D02*
X123122493Y-76869819D01*
X123122493Y-76869819D02*
X122979636Y-76917438D01*
X122979636Y-76917438D02*
X122884398Y-77012676D01*
X122884398Y-77012676D02*
X122836779Y-77107914D01*
X122836779Y-77107914D02*
X122789160Y-77298390D01*
X122789160Y-77298390D02*
X122789160Y-77441247D01*
X122789160Y-77441247D02*
X122836779Y-77631723D01*
X122836779Y-77631723D02*
X122884398Y-77726961D01*
X122884398Y-77726961D02*
X122979636Y-77822200D01*
X122979636Y-77822200D02*
X123122493Y-77869819D01*
X123122493Y-77869819D02*
X123217731Y-77869819D01*
X123217731Y-77869819D02*
X123360588Y-77822200D01*
X123360588Y-77822200D02*
X123408207Y-77774580D01*
X123408207Y-77774580D02*
X123408207Y-77441247D01*
X123408207Y-77441247D02*
X123217731Y-77441247D01*
X123836779Y-77869819D02*
X123836779Y-76869819D01*
X123836779Y-76869819D02*
X124408207Y-77869819D01*
X124408207Y-77869819D02*
X124408207Y-76869819D01*
X124884398Y-77869819D02*
X124884398Y-76869819D01*
X124884398Y-76869819D02*
X125122493Y-76869819D01*
X125122493Y-76869819D02*
X125265350Y-76917438D01*
X125265350Y-76917438D02*
X125360588Y-77012676D01*
X125360588Y-77012676D02*
X125408207Y-77107914D01*
X125408207Y-77107914D02*
X125455826Y-77298390D01*
X125455826Y-77298390D02*
X125455826Y-77441247D01*
X125455826Y-77441247D02*
X125408207Y-77631723D01*
X125408207Y-77631723D02*
X125360588Y-77726961D01*
X125360588Y-77726961D02*
X125265350Y-77822200D01*
X125265350Y-77822200D02*
X125122493Y-77869819D01*
X125122493Y-77869819D02*
X124884398Y-77869819D01*
X127170112Y-76917438D02*
X127074874Y-76869819D01*
X127074874Y-76869819D02*
X126932017Y-76869819D01*
X126932017Y-76869819D02*
X126789160Y-76917438D01*
X126789160Y-76917438D02*
X126693922Y-77012676D01*
X126693922Y-77012676D02*
X126646303Y-77107914D01*
X126646303Y-77107914D02*
X126598684Y-77298390D01*
X126598684Y-77298390D02*
X126598684Y-77441247D01*
X126598684Y-77441247D02*
X126646303Y-77631723D01*
X126646303Y-77631723D02*
X126693922Y-77726961D01*
X126693922Y-77726961D02*
X126789160Y-77822200D01*
X126789160Y-77822200D02*
X126932017Y-77869819D01*
X126932017Y-77869819D02*
X127027255Y-77869819D01*
X127027255Y-77869819D02*
X127170112Y-77822200D01*
X127170112Y-77822200D02*
X127217731Y-77774580D01*
X127217731Y-77774580D02*
X127217731Y-77441247D01*
X127217731Y-77441247D02*
X127027255Y-77441247D01*
X127646303Y-77869819D02*
X127646303Y-76869819D01*
X127646303Y-76869819D02*
X128027255Y-76869819D01*
X128027255Y-76869819D02*
X128122493Y-76917438D01*
X128122493Y-76917438D02*
X128170112Y-76965057D01*
X128170112Y-76965057D02*
X128217731Y-77060295D01*
X128217731Y-77060295D02*
X128217731Y-77203152D01*
X128217731Y-77203152D02*
X128170112Y-77298390D01*
X128170112Y-77298390D02*
X128122493Y-77346009D01*
X128122493Y-77346009D02*
X128027255Y-77393628D01*
X128027255Y-77393628D02*
X127646303Y-77393628D01*
X128646303Y-77869819D02*
X128646303Y-76869819D01*
X129312969Y-76869819D02*
X129503445Y-76869819D01*
X129503445Y-76869819D02*
X129598683Y-76917438D01*
X129598683Y-76917438D02*
X129693921Y-77012676D01*
X129693921Y-77012676D02*
X129741540Y-77203152D01*
X129741540Y-77203152D02*
X129741540Y-77536485D01*
X129741540Y-77536485D02*
X129693921Y-77726961D01*
X129693921Y-77726961D02*
X129598683Y-77822200D01*
X129598683Y-77822200D02*
X129503445Y-77869819D01*
X129503445Y-77869819D02*
X129312969Y-77869819D01*
X129312969Y-77869819D02*
X129217731Y-77822200D01*
X129217731Y-77822200D02*
X129122493Y-77726961D01*
X129122493Y-77726961D02*
X129074874Y-77536485D01*
X129074874Y-77536485D02*
X129074874Y-77203152D01*
X129074874Y-77203152D02*
X129122493Y-77012676D01*
X129122493Y-77012676D02*
X129217731Y-76917438D01*
X129217731Y-76917438D02*
X129312969Y-76869819D01*
X130693921Y-77869819D02*
X130122493Y-77869819D01*
X130408207Y-77869819D02*
X130408207Y-76869819D01*
X130408207Y-76869819D02*
X130312969Y-77012676D01*
X130312969Y-77012676D02*
X130217731Y-77107914D01*
X130217731Y-77107914D02*
X130122493Y-77155533D01*
X131027255Y-76869819D02*
X131693921Y-76869819D01*
X131693921Y-76869819D02*
X131265350Y-77869819D01*
X133360588Y-76917438D02*
X133265350Y-76869819D01*
X133265350Y-76869819D02*
X133122493Y-76869819D01*
X133122493Y-76869819D02*
X132979636Y-76917438D01*
X132979636Y-76917438D02*
X132884398Y-77012676D01*
X132884398Y-77012676D02*
X132836779Y-77107914D01*
X132836779Y-77107914D02*
X132789160Y-77298390D01*
X132789160Y-77298390D02*
X132789160Y-77441247D01*
X132789160Y-77441247D02*
X132836779Y-77631723D01*
X132836779Y-77631723D02*
X132884398Y-77726961D01*
X132884398Y-77726961D02*
X132979636Y-77822200D01*
X132979636Y-77822200D02*
X133122493Y-77869819D01*
X133122493Y-77869819D02*
X133217731Y-77869819D01*
X133217731Y-77869819D02*
X133360588Y-77822200D01*
X133360588Y-77822200D02*
X133408207Y-77774580D01*
X133408207Y-77774580D02*
X133408207Y-77441247D01*
X133408207Y-77441247D02*
X133217731Y-77441247D01*
X133836779Y-77869819D02*
X133836779Y-76869819D01*
X133836779Y-76869819D02*
X134217731Y-76869819D01*
X134217731Y-76869819D02*
X134312969Y-76917438D01*
X134312969Y-76917438D02*
X134360588Y-76965057D01*
X134360588Y-76965057D02*
X134408207Y-77060295D01*
X134408207Y-77060295D02*
X134408207Y-77203152D01*
X134408207Y-77203152D02*
X134360588Y-77298390D01*
X134360588Y-77298390D02*
X134312969Y-77346009D01*
X134312969Y-77346009D02*
X134217731Y-77393628D01*
X134217731Y-77393628D02*
X133836779Y-77393628D01*
X134836779Y-77869819D02*
X134836779Y-76869819D01*
X135503445Y-76869819D02*
X135693921Y-76869819D01*
X135693921Y-76869819D02*
X135789159Y-76917438D01*
X135789159Y-76917438D02*
X135884397Y-77012676D01*
X135884397Y-77012676D02*
X135932016Y-77203152D01*
X135932016Y-77203152D02*
X135932016Y-77536485D01*
X135932016Y-77536485D02*
X135884397Y-77726961D01*
X135884397Y-77726961D02*
X135789159Y-77822200D01*
X135789159Y-77822200D02*
X135693921Y-77869819D01*
X135693921Y-77869819D02*
X135503445Y-77869819D01*
X135503445Y-77869819D02*
X135408207Y-77822200D01*
X135408207Y-77822200D02*
X135312969Y-77726961D01*
X135312969Y-77726961D02*
X135265350Y-77536485D01*
X135265350Y-77536485D02*
X135265350Y-77203152D01*
X135265350Y-77203152D02*
X135312969Y-77012676D01*
X135312969Y-77012676D02*
X135408207Y-76917438D01*
X135408207Y-76917438D02*
X135503445Y-76869819D01*
X136312969Y-76965057D02*
X136360588Y-76917438D01*
X136360588Y-76917438D02*
X136455826Y-76869819D01*
X136455826Y-76869819D02*
X136693921Y-76869819D01*
X136693921Y-76869819D02*
X136789159Y-76917438D01*
X136789159Y-76917438D02*
X136836778Y-76965057D01*
X136836778Y-76965057D02*
X136884397Y-77060295D01*
X136884397Y-77060295D02*
X136884397Y-77155533D01*
X136884397Y-77155533D02*
X136836778Y-77298390D01*
X136836778Y-77298390D02*
X136265350Y-77869819D01*
X136265350Y-77869819D02*
X136884397Y-77869819D01*
X137217731Y-76869819D02*
X137884397Y-76869819D01*
X137884397Y-76869819D02*
X137455826Y-77869819D01*
X139027255Y-77488866D02*
X139789160Y-77488866D01*
X139408207Y-77869819D02*
X139408207Y-77107914D01*
X140741540Y-76869819D02*
X140265350Y-76869819D01*
X140265350Y-76869819D02*
X140217731Y-77346009D01*
X140217731Y-77346009D02*
X140265350Y-77298390D01*
X140265350Y-77298390D02*
X140360588Y-77250771D01*
X140360588Y-77250771D02*
X140598683Y-77250771D01*
X140598683Y-77250771D02*
X140693921Y-77298390D01*
X140693921Y-77298390D02*
X140741540Y-77346009D01*
X140741540Y-77346009D02*
X140789159Y-77441247D01*
X140789159Y-77441247D02*
X140789159Y-77679342D01*
X140789159Y-77679342D02*
X140741540Y-77774580D01*
X140741540Y-77774580D02*
X140693921Y-77822200D01*
X140693921Y-77822200D02*
X140598683Y-77869819D01*
X140598683Y-77869819D02*
X140360588Y-77869819D01*
X140360588Y-77869819D02*
X140265350Y-77822200D01*
X140265350Y-77822200D02*
X140217731Y-77774580D01*
X141074874Y-76869819D02*
X141408207Y-77869819D01*
X141408207Y-77869819D02*
X141741540Y-76869819D01*
X137360588Y-97917438D02*
X137265350Y-97869819D01*
X137265350Y-97869819D02*
X137122493Y-97869819D01*
X137122493Y-97869819D02*
X136979636Y-97917438D01*
X136979636Y-97917438D02*
X136884398Y-98012676D01*
X136884398Y-98012676D02*
X136836779Y-98107914D01*
X136836779Y-98107914D02*
X136789160Y-98298390D01*
X136789160Y-98298390D02*
X136789160Y-98441247D01*
X136789160Y-98441247D02*
X136836779Y-98631723D01*
X136836779Y-98631723D02*
X136884398Y-98726961D01*
X136884398Y-98726961D02*
X136979636Y-98822200D01*
X136979636Y-98822200D02*
X137122493Y-98869819D01*
X137122493Y-98869819D02*
X137217731Y-98869819D01*
X137217731Y-98869819D02*
X137360588Y-98822200D01*
X137360588Y-98822200D02*
X137408207Y-98774580D01*
X137408207Y-98774580D02*
X137408207Y-98441247D01*
X137408207Y-98441247D02*
X137217731Y-98441247D01*
X137836779Y-98869819D02*
X137836779Y-97869819D01*
X137836779Y-97869819D02*
X138408207Y-98869819D01*
X138408207Y-98869819D02*
X138408207Y-97869819D01*
X138884398Y-98869819D02*
X138884398Y-97869819D01*
X138884398Y-97869819D02*
X139122493Y-97869819D01*
X139122493Y-97869819D02*
X139265350Y-97917438D01*
X139265350Y-97917438D02*
X139360588Y-98012676D01*
X139360588Y-98012676D02*
X139408207Y-98107914D01*
X139408207Y-98107914D02*
X139455826Y-98298390D01*
X139455826Y-98298390D02*
X139455826Y-98441247D01*
X139455826Y-98441247D02*
X139408207Y-98631723D01*
X139408207Y-98631723D02*
X139360588Y-98726961D01*
X139360588Y-98726961D02*
X139265350Y-98822200D01*
X139265350Y-98822200D02*
X139122493Y-98869819D01*
X139122493Y-98869819D02*
X138884398Y-98869819D01*
X141170112Y-97917438D02*
X141074874Y-97869819D01*
X141074874Y-97869819D02*
X140932017Y-97869819D01*
X140932017Y-97869819D02*
X140789160Y-97917438D01*
X140789160Y-97917438D02*
X140693922Y-98012676D01*
X140693922Y-98012676D02*
X140646303Y-98107914D01*
X140646303Y-98107914D02*
X140598684Y-98298390D01*
X140598684Y-98298390D02*
X140598684Y-98441247D01*
X140598684Y-98441247D02*
X140646303Y-98631723D01*
X140646303Y-98631723D02*
X140693922Y-98726961D01*
X140693922Y-98726961D02*
X140789160Y-98822200D01*
X140789160Y-98822200D02*
X140932017Y-98869819D01*
X140932017Y-98869819D02*
X141027255Y-98869819D01*
X141027255Y-98869819D02*
X141170112Y-98822200D01*
X141170112Y-98822200D02*
X141217731Y-98774580D01*
X141217731Y-98774580D02*
X141217731Y-98441247D01*
X141217731Y-98441247D02*
X141027255Y-98441247D01*
X141646303Y-98869819D02*
X141646303Y-97869819D01*
X141646303Y-97869819D02*
X142027255Y-97869819D01*
X142027255Y-97869819D02*
X142122493Y-97917438D01*
X142122493Y-97917438D02*
X142170112Y-97965057D01*
X142170112Y-97965057D02*
X142217731Y-98060295D01*
X142217731Y-98060295D02*
X142217731Y-98203152D01*
X142217731Y-98203152D02*
X142170112Y-98298390D01*
X142170112Y-98298390D02*
X142122493Y-98346009D01*
X142122493Y-98346009D02*
X142027255Y-98393628D01*
X142027255Y-98393628D02*
X141646303Y-98393628D01*
X142646303Y-98869819D02*
X142646303Y-97869819D01*
X143312969Y-97869819D02*
X143503445Y-97869819D01*
X143503445Y-97869819D02*
X143598683Y-97917438D01*
X143598683Y-97917438D02*
X143693921Y-98012676D01*
X143693921Y-98012676D02*
X143741540Y-98203152D01*
X143741540Y-98203152D02*
X143741540Y-98536485D01*
X143741540Y-98536485D02*
X143693921Y-98726961D01*
X143693921Y-98726961D02*
X143598683Y-98822200D01*
X143598683Y-98822200D02*
X143503445Y-98869819D01*
X143503445Y-98869819D02*
X143312969Y-98869819D01*
X143312969Y-98869819D02*
X143217731Y-98822200D01*
X143217731Y-98822200D02*
X143122493Y-98726961D01*
X143122493Y-98726961D02*
X143074874Y-98536485D01*
X143074874Y-98536485D02*
X143074874Y-98203152D01*
X143074874Y-98203152D02*
X143122493Y-98012676D01*
X143122493Y-98012676D02*
X143217731Y-97917438D01*
X143217731Y-97917438D02*
X143312969Y-97869819D01*
X144646302Y-97869819D02*
X144170112Y-97869819D01*
X144170112Y-97869819D02*
X144122493Y-98346009D01*
X144122493Y-98346009D02*
X144170112Y-98298390D01*
X144170112Y-98298390D02*
X144265350Y-98250771D01*
X144265350Y-98250771D02*
X144503445Y-98250771D01*
X144503445Y-98250771D02*
X144598683Y-98298390D01*
X144598683Y-98298390D02*
X144646302Y-98346009D01*
X144646302Y-98346009D02*
X144693921Y-98441247D01*
X144693921Y-98441247D02*
X144693921Y-98679342D01*
X144693921Y-98679342D02*
X144646302Y-98774580D01*
X144646302Y-98774580D02*
X144598683Y-98822200D01*
X144598683Y-98822200D02*
X144503445Y-98869819D01*
X144503445Y-98869819D02*
X144265350Y-98869819D01*
X144265350Y-98869819D02*
X144170112Y-98822200D01*
X144170112Y-98822200D02*
X144122493Y-98774580D01*
X146408207Y-97917438D02*
X146312969Y-97869819D01*
X146312969Y-97869819D02*
X146170112Y-97869819D01*
X146170112Y-97869819D02*
X146027255Y-97917438D01*
X146027255Y-97917438D02*
X145932017Y-98012676D01*
X145932017Y-98012676D02*
X145884398Y-98107914D01*
X145884398Y-98107914D02*
X145836779Y-98298390D01*
X145836779Y-98298390D02*
X145836779Y-98441247D01*
X145836779Y-98441247D02*
X145884398Y-98631723D01*
X145884398Y-98631723D02*
X145932017Y-98726961D01*
X145932017Y-98726961D02*
X146027255Y-98822200D01*
X146027255Y-98822200D02*
X146170112Y-98869819D01*
X146170112Y-98869819D02*
X146265350Y-98869819D01*
X146265350Y-98869819D02*
X146408207Y-98822200D01*
X146408207Y-98822200D02*
X146455826Y-98774580D01*
X146455826Y-98774580D02*
X146455826Y-98441247D01*
X146455826Y-98441247D02*
X146265350Y-98441247D01*
X146884398Y-98869819D02*
X146884398Y-97869819D01*
X146884398Y-97869819D02*
X147265350Y-97869819D01*
X147265350Y-97869819D02*
X147360588Y-97917438D01*
X147360588Y-97917438D02*
X147408207Y-97965057D01*
X147408207Y-97965057D02*
X147455826Y-98060295D01*
X147455826Y-98060295D02*
X147455826Y-98203152D01*
X147455826Y-98203152D02*
X147408207Y-98298390D01*
X147408207Y-98298390D02*
X147360588Y-98346009D01*
X147360588Y-98346009D02*
X147265350Y-98393628D01*
X147265350Y-98393628D02*
X146884398Y-98393628D01*
X147884398Y-98869819D02*
X147884398Y-97869819D01*
X148551064Y-97869819D02*
X148741540Y-97869819D01*
X148741540Y-97869819D02*
X148836778Y-97917438D01*
X148836778Y-97917438D02*
X148932016Y-98012676D01*
X148932016Y-98012676D02*
X148979635Y-98203152D01*
X148979635Y-98203152D02*
X148979635Y-98536485D01*
X148979635Y-98536485D02*
X148932016Y-98726961D01*
X148932016Y-98726961D02*
X148836778Y-98822200D01*
X148836778Y-98822200D02*
X148741540Y-98869819D01*
X148741540Y-98869819D02*
X148551064Y-98869819D01*
X148551064Y-98869819D02*
X148455826Y-98822200D01*
X148455826Y-98822200D02*
X148360588Y-98726961D01*
X148360588Y-98726961D02*
X148312969Y-98536485D01*
X148312969Y-98536485D02*
X148312969Y-98203152D01*
X148312969Y-98203152D02*
X148360588Y-98012676D01*
X148360588Y-98012676D02*
X148455826Y-97917438D01*
X148455826Y-97917438D02*
X148551064Y-97869819D01*
X149836778Y-97869819D02*
X149646302Y-97869819D01*
X149646302Y-97869819D02*
X149551064Y-97917438D01*
X149551064Y-97917438D02*
X149503445Y-97965057D01*
X149503445Y-97965057D02*
X149408207Y-98107914D01*
X149408207Y-98107914D02*
X149360588Y-98298390D01*
X149360588Y-98298390D02*
X149360588Y-98679342D01*
X149360588Y-98679342D02*
X149408207Y-98774580D01*
X149408207Y-98774580D02*
X149455826Y-98822200D01*
X149455826Y-98822200D02*
X149551064Y-98869819D01*
X149551064Y-98869819D02*
X149741540Y-98869819D01*
X149741540Y-98869819D02*
X149836778Y-98822200D01*
X149836778Y-98822200D02*
X149884397Y-98774580D01*
X149884397Y-98774580D02*
X149932016Y-98679342D01*
X149932016Y-98679342D02*
X149932016Y-98441247D01*
X149932016Y-98441247D02*
X149884397Y-98346009D01*
X149884397Y-98346009D02*
X149836778Y-98298390D01*
X149836778Y-98298390D02*
X149741540Y-98250771D01*
X149741540Y-98250771D02*
X149551064Y-98250771D01*
X149551064Y-98250771D02*
X149455826Y-98298390D01*
X149455826Y-98298390D02*
X149408207Y-98346009D01*
X149408207Y-98346009D02*
X149360588Y-98441247D01*
X151122493Y-98488866D02*
X151884398Y-98488866D01*
X151503445Y-98869819D02*
X151503445Y-98107914D01*
X152836778Y-97869819D02*
X152360588Y-97869819D01*
X152360588Y-97869819D02*
X152312969Y-98346009D01*
X152312969Y-98346009D02*
X152360588Y-98298390D01*
X152360588Y-98298390D02*
X152455826Y-98250771D01*
X152455826Y-98250771D02*
X152693921Y-98250771D01*
X152693921Y-98250771D02*
X152789159Y-98298390D01*
X152789159Y-98298390D02*
X152836778Y-98346009D01*
X152836778Y-98346009D02*
X152884397Y-98441247D01*
X152884397Y-98441247D02*
X152884397Y-98679342D01*
X152884397Y-98679342D02*
X152836778Y-98774580D01*
X152836778Y-98774580D02*
X152789159Y-98822200D01*
X152789159Y-98822200D02*
X152693921Y-98869819D01*
X152693921Y-98869819D02*
X152455826Y-98869819D01*
X152455826Y-98869819D02*
X152360588Y-98822200D01*
X152360588Y-98822200D02*
X152312969Y-98774580D01*
X153170112Y-97869819D02*
X153503445Y-98869819D01*
X153503445Y-98869819D02*
X153836778Y-97869819D01*
X110860588Y-97917438D02*
X110765350Y-97869819D01*
X110765350Y-97869819D02*
X110622493Y-97869819D01*
X110622493Y-97869819D02*
X110479636Y-97917438D01*
X110479636Y-97917438D02*
X110384398Y-98012676D01*
X110384398Y-98012676D02*
X110336779Y-98107914D01*
X110336779Y-98107914D02*
X110289160Y-98298390D01*
X110289160Y-98298390D02*
X110289160Y-98441247D01*
X110289160Y-98441247D02*
X110336779Y-98631723D01*
X110336779Y-98631723D02*
X110384398Y-98726961D01*
X110384398Y-98726961D02*
X110479636Y-98822200D01*
X110479636Y-98822200D02*
X110622493Y-98869819D01*
X110622493Y-98869819D02*
X110717731Y-98869819D01*
X110717731Y-98869819D02*
X110860588Y-98822200D01*
X110860588Y-98822200D02*
X110908207Y-98774580D01*
X110908207Y-98774580D02*
X110908207Y-98441247D01*
X110908207Y-98441247D02*
X110717731Y-98441247D01*
X111336779Y-98869819D02*
X111336779Y-97869819D01*
X111336779Y-97869819D02*
X111908207Y-98869819D01*
X111908207Y-98869819D02*
X111908207Y-97869819D01*
X112384398Y-98869819D02*
X112384398Y-97869819D01*
X112384398Y-97869819D02*
X112622493Y-97869819D01*
X112622493Y-97869819D02*
X112765350Y-97917438D01*
X112765350Y-97917438D02*
X112860588Y-98012676D01*
X112860588Y-98012676D02*
X112908207Y-98107914D01*
X112908207Y-98107914D02*
X112955826Y-98298390D01*
X112955826Y-98298390D02*
X112955826Y-98441247D01*
X112955826Y-98441247D02*
X112908207Y-98631723D01*
X112908207Y-98631723D02*
X112860588Y-98726961D01*
X112860588Y-98726961D02*
X112765350Y-98822200D01*
X112765350Y-98822200D02*
X112622493Y-98869819D01*
X112622493Y-98869819D02*
X112384398Y-98869819D01*
X114670112Y-97917438D02*
X114574874Y-97869819D01*
X114574874Y-97869819D02*
X114432017Y-97869819D01*
X114432017Y-97869819D02*
X114289160Y-97917438D01*
X114289160Y-97917438D02*
X114193922Y-98012676D01*
X114193922Y-98012676D02*
X114146303Y-98107914D01*
X114146303Y-98107914D02*
X114098684Y-98298390D01*
X114098684Y-98298390D02*
X114098684Y-98441247D01*
X114098684Y-98441247D02*
X114146303Y-98631723D01*
X114146303Y-98631723D02*
X114193922Y-98726961D01*
X114193922Y-98726961D02*
X114289160Y-98822200D01*
X114289160Y-98822200D02*
X114432017Y-98869819D01*
X114432017Y-98869819D02*
X114527255Y-98869819D01*
X114527255Y-98869819D02*
X114670112Y-98822200D01*
X114670112Y-98822200D02*
X114717731Y-98774580D01*
X114717731Y-98774580D02*
X114717731Y-98441247D01*
X114717731Y-98441247D02*
X114527255Y-98441247D01*
X115146303Y-98869819D02*
X115146303Y-97869819D01*
X115146303Y-97869819D02*
X115527255Y-97869819D01*
X115527255Y-97869819D02*
X115622493Y-97917438D01*
X115622493Y-97917438D02*
X115670112Y-97965057D01*
X115670112Y-97965057D02*
X115717731Y-98060295D01*
X115717731Y-98060295D02*
X115717731Y-98203152D01*
X115717731Y-98203152D02*
X115670112Y-98298390D01*
X115670112Y-98298390D02*
X115622493Y-98346009D01*
X115622493Y-98346009D02*
X115527255Y-98393628D01*
X115527255Y-98393628D02*
X115146303Y-98393628D01*
X116146303Y-98869819D02*
X116146303Y-97869819D01*
X116812969Y-97869819D02*
X117003445Y-97869819D01*
X117003445Y-97869819D02*
X117098683Y-97917438D01*
X117098683Y-97917438D02*
X117193921Y-98012676D01*
X117193921Y-98012676D02*
X117241540Y-98203152D01*
X117241540Y-98203152D02*
X117241540Y-98536485D01*
X117241540Y-98536485D02*
X117193921Y-98726961D01*
X117193921Y-98726961D02*
X117098683Y-98822200D01*
X117098683Y-98822200D02*
X117003445Y-98869819D01*
X117003445Y-98869819D02*
X116812969Y-98869819D01*
X116812969Y-98869819D02*
X116717731Y-98822200D01*
X116717731Y-98822200D02*
X116622493Y-98726961D01*
X116622493Y-98726961D02*
X116574874Y-98536485D01*
X116574874Y-98536485D02*
X116574874Y-98203152D01*
X116574874Y-98203152D02*
X116622493Y-98012676D01*
X116622493Y-98012676D02*
X116717731Y-97917438D01*
X116717731Y-97917438D02*
X116812969Y-97869819D01*
X117622493Y-97965057D02*
X117670112Y-97917438D01*
X117670112Y-97917438D02*
X117765350Y-97869819D01*
X117765350Y-97869819D02*
X118003445Y-97869819D01*
X118003445Y-97869819D02*
X118098683Y-97917438D01*
X118098683Y-97917438D02*
X118146302Y-97965057D01*
X118146302Y-97965057D02*
X118193921Y-98060295D01*
X118193921Y-98060295D02*
X118193921Y-98155533D01*
X118193921Y-98155533D02*
X118146302Y-98298390D01*
X118146302Y-98298390D02*
X117574874Y-98869819D01*
X117574874Y-98869819D02*
X118193921Y-98869819D01*
X119908207Y-97917438D02*
X119812969Y-97869819D01*
X119812969Y-97869819D02*
X119670112Y-97869819D01*
X119670112Y-97869819D02*
X119527255Y-97917438D01*
X119527255Y-97917438D02*
X119432017Y-98012676D01*
X119432017Y-98012676D02*
X119384398Y-98107914D01*
X119384398Y-98107914D02*
X119336779Y-98298390D01*
X119336779Y-98298390D02*
X119336779Y-98441247D01*
X119336779Y-98441247D02*
X119384398Y-98631723D01*
X119384398Y-98631723D02*
X119432017Y-98726961D01*
X119432017Y-98726961D02*
X119527255Y-98822200D01*
X119527255Y-98822200D02*
X119670112Y-98869819D01*
X119670112Y-98869819D02*
X119765350Y-98869819D01*
X119765350Y-98869819D02*
X119908207Y-98822200D01*
X119908207Y-98822200D02*
X119955826Y-98774580D01*
X119955826Y-98774580D02*
X119955826Y-98441247D01*
X119955826Y-98441247D02*
X119765350Y-98441247D01*
X120384398Y-98869819D02*
X120384398Y-97869819D01*
X120384398Y-97869819D02*
X120765350Y-97869819D01*
X120765350Y-97869819D02*
X120860588Y-97917438D01*
X120860588Y-97917438D02*
X120908207Y-97965057D01*
X120908207Y-97965057D02*
X120955826Y-98060295D01*
X120955826Y-98060295D02*
X120955826Y-98203152D01*
X120955826Y-98203152D02*
X120908207Y-98298390D01*
X120908207Y-98298390D02*
X120860588Y-98346009D01*
X120860588Y-98346009D02*
X120765350Y-98393628D01*
X120765350Y-98393628D02*
X120384398Y-98393628D01*
X121384398Y-98869819D02*
X121384398Y-97869819D01*
X122051064Y-97869819D02*
X122241540Y-97869819D01*
X122241540Y-97869819D02*
X122336778Y-97917438D01*
X122336778Y-97917438D02*
X122432016Y-98012676D01*
X122432016Y-98012676D02*
X122479635Y-98203152D01*
X122479635Y-98203152D02*
X122479635Y-98536485D01*
X122479635Y-98536485D02*
X122432016Y-98726961D01*
X122432016Y-98726961D02*
X122336778Y-98822200D01*
X122336778Y-98822200D02*
X122241540Y-98869819D01*
X122241540Y-98869819D02*
X122051064Y-98869819D01*
X122051064Y-98869819D02*
X121955826Y-98822200D01*
X121955826Y-98822200D02*
X121860588Y-98726961D01*
X121860588Y-98726961D02*
X121812969Y-98536485D01*
X121812969Y-98536485D02*
X121812969Y-98203152D01*
X121812969Y-98203152D02*
X121860588Y-98012676D01*
X121860588Y-98012676D02*
X121955826Y-97917438D01*
X121955826Y-97917438D02*
X122051064Y-97869819D01*
X122812969Y-97869819D02*
X123432016Y-97869819D01*
X123432016Y-97869819D02*
X123098683Y-98250771D01*
X123098683Y-98250771D02*
X123241540Y-98250771D01*
X123241540Y-98250771D02*
X123336778Y-98298390D01*
X123336778Y-98298390D02*
X123384397Y-98346009D01*
X123384397Y-98346009D02*
X123432016Y-98441247D01*
X123432016Y-98441247D02*
X123432016Y-98679342D01*
X123432016Y-98679342D02*
X123384397Y-98774580D01*
X123384397Y-98774580D02*
X123336778Y-98822200D01*
X123336778Y-98822200D02*
X123241540Y-98869819D01*
X123241540Y-98869819D02*
X122955826Y-98869819D01*
X122955826Y-98869819D02*
X122860588Y-98822200D01*
X122860588Y-98822200D02*
X122812969Y-98774580D01*
X124622493Y-98488866D02*
X125384398Y-98488866D01*
X125003445Y-98869819D02*
X125003445Y-98107914D01*
X126336778Y-97869819D02*
X125860588Y-97869819D01*
X125860588Y-97869819D02*
X125812969Y-98346009D01*
X125812969Y-98346009D02*
X125860588Y-98298390D01*
X125860588Y-98298390D02*
X125955826Y-98250771D01*
X125955826Y-98250771D02*
X126193921Y-98250771D01*
X126193921Y-98250771D02*
X126289159Y-98298390D01*
X126289159Y-98298390D02*
X126336778Y-98346009D01*
X126336778Y-98346009D02*
X126384397Y-98441247D01*
X126384397Y-98441247D02*
X126384397Y-98679342D01*
X126384397Y-98679342D02*
X126336778Y-98774580D01*
X126336778Y-98774580D02*
X126289159Y-98822200D01*
X126289159Y-98822200D02*
X126193921Y-98869819D01*
X126193921Y-98869819D02*
X125955826Y-98869819D01*
X125955826Y-98869819D02*
X125860588Y-98822200D01*
X125860588Y-98822200D02*
X125812969Y-98774580D01*
X126670112Y-97869819D02*
X127003445Y-98869819D01*
X127003445Y-98869819D02*
X127336778Y-97869819D01*
X118666666Y-85834819D02*
X118666666Y-86549104D01*
X118666666Y-86549104D02*
X118619047Y-86691961D01*
X118619047Y-86691961D02*
X118523809Y-86787200D01*
X118523809Y-86787200D02*
X118380952Y-86834819D01*
X118380952Y-86834819D02*
X118285714Y-86834819D01*
X119095238Y-85930057D02*
X119142857Y-85882438D01*
X119142857Y-85882438D02*
X119238095Y-85834819D01*
X119238095Y-85834819D02*
X119476190Y-85834819D01*
X119476190Y-85834819D02*
X119571428Y-85882438D01*
X119571428Y-85882438D02*
X119619047Y-85930057D01*
X119619047Y-85930057D02*
X119666666Y-86025295D01*
X119666666Y-86025295D02*
X119666666Y-86120533D01*
X119666666Y-86120533D02*
X119619047Y-86263390D01*
X119619047Y-86263390D02*
X119047619Y-86834819D01*
X119047619Y-86834819D02*
X119666666Y-86834819D01*
X109023333Y-58584819D02*
X108690000Y-58108628D01*
X108451905Y-58584819D02*
X108451905Y-57584819D01*
X108451905Y-57584819D02*
X108832857Y-57584819D01*
X108832857Y-57584819D02*
X108928095Y-57632438D01*
X108928095Y-57632438D02*
X108975714Y-57680057D01*
X108975714Y-57680057D02*
X109023333Y-57775295D01*
X109023333Y-57775295D02*
X109023333Y-57918152D01*
X109023333Y-57918152D02*
X108975714Y-58013390D01*
X108975714Y-58013390D02*
X108928095Y-58061009D01*
X108928095Y-58061009D02*
X108832857Y-58108628D01*
X108832857Y-58108628D02*
X108451905Y-58108628D01*
X109975714Y-58584819D02*
X109404286Y-58584819D01*
X109690000Y-58584819D02*
X109690000Y-57584819D01*
X109690000Y-57584819D02*
X109594762Y-57727676D01*
X109594762Y-57727676D02*
X109499524Y-57822914D01*
X109499524Y-57822914D02*
X109404286Y-57870533D01*
X149023333Y-63584819D02*
X148690000Y-63108628D01*
X148451905Y-63584819D02*
X148451905Y-62584819D01*
X148451905Y-62584819D02*
X148832857Y-62584819D01*
X148832857Y-62584819D02*
X148928095Y-62632438D01*
X148928095Y-62632438D02*
X148975714Y-62680057D01*
X148975714Y-62680057D02*
X149023333Y-62775295D01*
X149023333Y-62775295D02*
X149023333Y-62918152D01*
X149023333Y-62918152D02*
X148975714Y-63013390D01*
X148975714Y-63013390D02*
X148928095Y-63061009D01*
X148928095Y-63061009D02*
X148832857Y-63108628D01*
X148832857Y-63108628D02*
X148451905Y-63108628D01*
X149928095Y-62584819D02*
X149451905Y-62584819D01*
X149451905Y-62584819D02*
X149404286Y-63061009D01*
X149404286Y-63061009D02*
X149451905Y-63013390D01*
X149451905Y-63013390D02*
X149547143Y-62965771D01*
X149547143Y-62965771D02*
X149785238Y-62965771D01*
X149785238Y-62965771D02*
X149880476Y-63013390D01*
X149880476Y-63013390D02*
X149928095Y-63061009D01*
X149928095Y-63061009D02*
X149975714Y-63156247D01*
X149975714Y-63156247D02*
X149975714Y-63394342D01*
X149975714Y-63394342D02*
X149928095Y-63489580D01*
X149928095Y-63489580D02*
X149880476Y-63537200D01*
X149880476Y-63537200D02*
X149785238Y-63584819D01*
X149785238Y-63584819D02*
X149547143Y-63584819D01*
X149547143Y-63584819D02*
X149451905Y-63537200D01*
X149451905Y-63537200D02*
X149404286Y-63489580D01*
X126833333Y-58954819D02*
X126500000Y-58478628D01*
X126261905Y-58954819D02*
X126261905Y-57954819D01*
X126261905Y-57954819D02*
X126642857Y-57954819D01*
X126642857Y-57954819D02*
X126738095Y-58002438D01*
X126738095Y-58002438D02*
X126785714Y-58050057D01*
X126785714Y-58050057D02*
X126833333Y-58145295D01*
X126833333Y-58145295D02*
X126833333Y-58288152D01*
X126833333Y-58288152D02*
X126785714Y-58383390D01*
X126785714Y-58383390D02*
X126738095Y-58431009D01*
X126738095Y-58431009D02*
X126642857Y-58478628D01*
X126642857Y-58478628D02*
X126261905Y-58478628D01*
X127166667Y-57954819D02*
X127785714Y-57954819D01*
X127785714Y-57954819D02*
X127452381Y-58335771D01*
X127452381Y-58335771D02*
X127595238Y-58335771D01*
X127595238Y-58335771D02*
X127690476Y-58383390D01*
X127690476Y-58383390D02*
X127738095Y-58431009D01*
X127738095Y-58431009D02*
X127785714Y-58526247D01*
X127785714Y-58526247D02*
X127785714Y-58764342D01*
X127785714Y-58764342D02*
X127738095Y-58859580D01*
X127738095Y-58859580D02*
X127690476Y-58907200D01*
X127690476Y-58907200D02*
X127595238Y-58954819D01*
X127595238Y-58954819D02*
X127309524Y-58954819D01*
X127309524Y-58954819D02*
X127214286Y-58907200D01*
X127214286Y-58907200D02*
X127166667Y-58859580D01*
X131666666Y-64834819D02*
X131666666Y-65549104D01*
X131666666Y-65549104D02*
X131619047Y-65691961D01*
X131619047Y-65691961D02*
X131523809Y-65787200D01*
X131523809Y-65787200D02*
X131380952Y-65834819D01*
X131380952Y-65834819D02*
X131285714Y-65834819D01*
X132047619Y-64834819D02*
X132666666Y-64834819D01*
X132666666Y-64834819D02*
X132333333Y-65215771D01*
X132333333Y-65215771D02*
X132476190Y-65215771D01*
X132476190Y-65215771D02*
X132571428Y-65263390D01*
X132571428Y-65263390D02*
X132619047Y-65311009D01*
X132619047Y-65311009D02*
X132666666Y-65406247D01*
X132666666Y-65406247D02*
X132666666Y-65644342D01*
X132666666Y-65644342D02*
X132619047Y-65739580D01*
X132619047Y-65739580D02*
X132571428Y-65787200D01*
X132571428Y-65787200D02*
X132476190Y-65834819D01*
X132476190Y-65834819D02*
X132190476Y-65834819D01*
X132190476Y-65834819D02*
X132095238Y-65787200D01*
X132095238Y-65787200D02*
X132047619Y-65739580D01*
X134833333Y-53584819D02*
X134500000Y-53108628D01*
X134261905Y-53584819D02*
X134261905Y-52584819D01*
X134261905Y-52584819D02*
X134642857Y-52584819D01*
X134642857Y-52584819D02*
X134738095Y-52632438D01*
X134738095Y-52632438D02*
X134785714Y-52680057D01*
X134785714Y-52680057D02*
X134833333Y-52775295D01*
X134833333Y-52775295D02*
X134833333Y-52918152D01*
X134833333Y-52918152D02*
X134785714Y-53013390D01*
X134785714Y-53013390D02*
X134738095Y-53061009D01*
X134738095Y-53061009D02*
X134642857Y-53108628D01*
X134642857Y-53108628D02*
X134261905Y-53108628D01*
X135690476Y-52918152D02*
X135690476Y-53584819D01*
X135452381Y-52537200D02*
X135214286Y-53251485D01*
X135214286Y-53251485D02*
X135833333Y-53251485D01*
X145666666Y-85834819D02*
X145666666Y-86549104D01*
X145666666Y-86549104D02*
X145619047Y-86691961D01*
X145619047Y-86691961D02*
X145523809Y-86787200D01*
X145523809Y-86787200D02*
X145380952Y-86834819D01*
X145380952Y-86834819D02*
X145285714Y-86834819D01*
X146571428Y-86168152D02*
X146571428Y-86834819D01*
X146333333Y-85787200D02*
X146095238Y-86501485D01*
X146095238Y-86501485D02*
X146714285Y-86501485D01*
X114643333Y-66584819D02*
X114310000Y-66108628D01*
X114071905Y-66584819D02*
X114071905Y-65584819D01*
X114071905Y-65584819D02*
X114452857Y-65584819D01*
X114452857Y-65584819D02*
X114548095Y-65632438D01*
X114548095Y-65632438D02*
X114595714Y-65680057D01*
X114595714Y-65680057D02*
X114643333Y-65775295D01*
X114643333Y-65775295D02*
X114643333Y-65918152D01*
X114643333Y-65918152D02*
X114595714Y-66013390D01*
X114595714Y-66013390D02*
X114548095Y-66061009D01*
X114548095Y-66061009D02*
X114452857Y-66108628D01*
X114452857Y-66108628D02*
X114071905Y-66108628D01*
X115024286Y-65680057D02*
X115071905Y-65632438D01*
X115071905Y-65632438D02*
X115167143Y-65584819D01*
X115167143Y-65584819D02*
X115405238Y-65584819D01*
X115405238Y-65584819D02*
X115500476Y-65632438D01*
X115500476Y-65632438D02*
X115548095Y-65680057D01*
X115548095Y-65680057D02*
X115595714Y-65775295D01*
X115595714Y-65775295D02*
X115595714Y-65870533D01*
X115595714Y-65870533D02*
X115548095Y-66013390D01*
X115548095Y-66013390D02*
X114976667Y-66584819D01*
X114976667Y-66584819D02*
X115595714Y-66584819D01*
X156333333Y-70454819D02*
X156000000Y-69978628D01*
X155761905Y-70454819D02*
X155761905Y-69454819D01*
X155761905Y-69454819D02*
X156142857Y-69454819D01*
X156142857Y-69454819D02*
X156238095Y-69502438D01*
X156238095Y-69502438D02*
X156285714Y-69550057D01*
X156285714Y-69550057D02*
X156333333Y-69645295D01*
X156333333Y-69645295D02*
X156333333Y-69788152D01*
X156333333Y-69788152D02*
X156285714Y-69883390D01*
X156285714Y-69883390D02*
X156238095Y-69931009D01*
X156238095Y-69931009D02*
X156142857Y-69978628D01*
X156142857Y-69978628D02*
X155761905Y-69978628D01*
X157190476Y-69454819D02*
X157000000Y-69454819D01*
X157000000Y-69454819D02*
X156904762Y-69502438D01*
X156904762Y-69502438D02*
X156857143Y-69550057D01*
X156857143Y-69550057D02*
X156761905Y-69692914D01*
X156761905Y-69692914D02*
X156714286Y-69883390D01*
X156714286Y-69883390D02*
X156714286Y-70264342D01*
X156714286Y-70264342D02*
X156761905Y-70359580D01*
X156761905Y-70359580D02*
X156809524Y-70407200D01*
X156809524Y-70407200D02*
X156904762Y-70454819D01*
X156904762Y-70454819D02*
X157095238Y-70454819D01*
X157095238Y-70454819D02*
X157190476Y-70407200D01*
X157190476Y-70407200D02*
X157238095Y-70359580D01*
X157238095Y-70359580D02*
X157285714Y-70264342D01*
X157285714Y-70264342D02*
X157285714Y-70026247D01*
X157285714Y-70026247D02*
X157238095Y-69931009D01*
X157238095Y-69931009D02*
X157190476Y-69883390D01*
X157190476Y-69883390D02*
X157095238Y-69835771D01*
X157095238Y-69835771D02*
X156904762Y-69835771D01*
X156904762Y-69835771D02*
X156809524Y-69883390D01*
X156809524Y-69883390D02*
X156761905Y-69931009D01*
X156761905Y-69931009D02*
X156714286Y-70026247D01*
D11*
X108880000Y-87380000D02*
X129120000Y-87380000D01*
X108880000Y-95000000D02*
X129120000Y-95000000D01*
X108880000Y-96100000D02*
X129120000Y-96100000D01*
X108880000Y-96620000D02*
X108880000Y-87380000D01*
X111200000Y-96620000D02*
X108880000Y-96620000D01*
X129120000Y-87380000D02*
X129120000Y-96620000D01*
X129120000Y-96620000D02*
X111800000Y-96620000D01*
X111940000Y-97230000D02*
X111060000Y-97230000D01*
X111500000Y-96620000D01*
X111940000Y-97230000D01*
G36*
X111940000Y-97230000D02*
G01*
X111060000Y-97230000D01*
X111500000Y-96620000D01*
X111940000Y-97230000D01*
G37*
X105920000Y-59130000D02*
X112460000Y-59130000D01*
X105920000Y-59460000D02*
X105920000Y-59130000D01*
X105920000Y-61540000D02*
X105920000Y-61870000D01*
X105920000Y-61870000D02*
X112460000Y-61870000D01*
X112460000Y-59130000D02*
X112460000Y-59460000D01*
X112460000Y-61870000D02*
X112460000Y-61540000D01*
X145920000Y-64130000D02*
X152460000Y-64130000D01*
X145920000Y-64460000D02*
X145920000Y-64130000D01*
X145920000Y-66540000D02*
X145920000Y-66870000D01*
X145920000Y-66870000D02*
X152460000Y-66870000D01*
X152460000Y-64130000D02*
X152460000Y-64460000D01*
X152460000Y-66870000D02*
X152460000Y-66540000D01*
X123730000Y-59630000D02*
X130270000Y-59630000D01*
X123730000Y-59960000D02*
X123730000Y-59630000D01*
X123730000Y-62040000D02*
X123730000Y-62370000D01*
X123730000Y-62370000D02*
X130270000Y-62370000D01*
X130270000Y-59630000D02*
X130270000Y-59960000D01*
X130270000Y-62370000D02*
X130270000Y-62040000D01*
X121880000Y-66380000D02*
X142120000Y-66380000D01*
X121880000Y-74000000D02*
X142120000Y-74000000D01*
X121880000Y-75100000D02*
X142120000Y-75100000D01*
X121880000Y-75620000D02*
X121880000Y-66380000D01*
X124200000Y-75620000D02*
X121880000Y-75620000D01*
X142120000Y-66380000D02*
X142120000Y-75620000D01*
X142120000Y-75620000D02*
X124800000Y-75620000D01*
X124940000Y-76230000D02*
X124060000Y-76230000D01*
X124500000Y-75620000D01*
X124940000Y-76230000D01*
G36*
X124940000Y-76230000D02*
G01*
X124060000Y-76230000D01*
X124500000Y-75620000D01*
X124940000Y-76230000D01*
G37*
X131730000Y-54130000D02*
X138270000Y-54130000D01*
X131730000Y-54460000D02*
X131730000Y-54130000D01*
X131730000Y-56540000D02*
X131730000Y-56870000D01*
X131730000Y-56870000D02*
X138270000Y-56870000D01*
X138270000Y-54130000D02*
X138270000Y-54460000D01*
X138270000Y-56870000D02*
X138270000Y-56540000D01*
X135880000Y-87380000D02*
X156120000Y-87380000D01*
X135880000Y-95000000D02*
X156120000Y-95000000D01*
X135880000Y-96100000D02*
X156120000Y-96100000D01*
X135880000Y-96620000D02*
X135880000Y-87380000D01*
X138200000Y-96620000D02*
X135880000Y-96620000D01*
X156120000Y-87380000D02*
X156120000Y-96620000D01*
X156120000Y-96620000D02*
X138800000Y-96620000D01*
X138940000Y-97230000D02*
X138060000Y-97230000D01*
X138500000Y-96620000D01*
X138940000Y-97230000D01*
G36*
X138940000Y-97230000D02*
G01*
X138060000Y-97230000D01*
X138500000Y-96620000D01*
X138940000Y-97230000D01*
G37*
X111540000Y-67130000D02*
X118080000Y-67130000D01*
X111540000Y-67460000D02*
X111540000Y-67130000D01*
X111540000Y-69540000D02*
X111540000Y-69870000D01*
X111540000Y-69870000D02*
X118080000Y-69870000D01*
X118080000Y-67130000D02*
X118080000Y-67460000D01*
X118080000Y-69870000D02*
X118080000Y-69540000D01*
X153230000Y-71130000D02*
X159770000Y-71130000D01*
X153230000Y-71460000D02*
X153230000Y-71130000D01*
X153230000Y-73540000D02*
X153230000Y-73870000D01*
X153230000Y-73870000D02*
X159770000Y-73870000D01*
X159770000Y-71130000D02*
X159770000Y-71460000D01*
X159770000Y-73870000D02*
X159770000Y-73540000D01*
M02*
