M48
; DRILL file {KiCad 9.0.7} date 2026-01-15T18:53:07-0800
; FORMAT={-:-/ absolute / metric / decimal}
; #@! TF.CreationDate,2026-01-15T18:53:07-08:00
; #@! TF.GenerationSoftware,Kicad,Pcbnew,9.0.7
; #@! TF.FileFunction,Plated,1,2,PTH
FMAT,2
METRIC
; #@! TA.AperFunction,Plated,PTH,ComponentDrill
T1C0.800
; #@! TA.AperFunction,Plated,PTH,ComponentDrill
T2C1.000
; #@! TA.AperFunction,Plated,PTH,ComponentDrill
T3C1.300
%
G90
G05
T1
X105.38Y-60.5
X111.0Y-68.5
X113.0Y-60.5
X118.62Y-68.5
X123.19Y-61.0
X130.81Y-61.0
X131.19Y-55.5
X138.81Y-55.5
X145.38Y-65.5
X152.69Y-72.5
X153.0Y-65.5
X160.31Y-72.5
T2
X108.37Y-46.23
X108.37Y-48.77
X110.91Y-46.23
X110.91Y-48.77
X113.45Y-46.23
X113.45Y-48.77
X115.99Y-46.23
X115.99Y-48.77
X118.53Y-46.23
X118.53Y-48.77
X121.07Y-46.23
X121.07Y-48.77
X123.61Y-46.23
X123.61Y-48.77
X126.15Y-46.23
X126.15Y-48.77
X128.69Y-46.23
X128.69Y-48.77
X131.23Y-46.23
X131.23Y-48.77
X133.77Y-46.23
X133.77Y-48.77
X136.31Y-46.23
X136.31Y-48.77
X138.85Y-46.23
X138.85Y-48.77
X141.39Y-46.23
X141.39Y-48.77
X143.93Y-46.23
X143.93Y-48.77
X146.47Y-46.23
X146.47Y-48.77
X149.01Y-46.23
X149.01Y-48.77
X151.55Y-46.23
X151.55Y-48.77
X154.09Y-46.23
X154.09Y-48.77
X156.63Y-46.23
X156.63Y-48.77
T3
X111.5Y-91.5
X116.5Y-91.5
X121.5Y-91.5
X124.5Y-70.5
X126.5Y-91.5
X129.5Y-70.5
X134.5Y-70.5
X138.5Y-91.5
X139.5Y-70.5
X143.5Y-91.5
X148.5Y-91.5
X153.5Y-91.5
M30
