G04 #@! TF.GenerationSoftware,KiCad,Pcbnew,9.0.7*
G04 #@! TF.CreationDate,2026-01-15T18:53:01-08:00*
G04 #@! TF.ProjectId,encoders,656e636f-6465-4727-932e-6b696361645f,rev?*
G04 #@! TF.SameCoordinates,Original*
G04 #@! TF.FileFunction,Copper,L1,Top*
G04 #@! TF.FilePolarity,Positive*
%FSLAX46Y46*%
G04 Gerber Fmt 4.6, Leading zero omitted, Abs format (unit mm)*
G04 Created by KiCad (PCBNEW 9.0.7) date 2026-01-15 18:53:01*
%MOMM*%
%LPD*%
G01*
G04 APERTURE LIST*
G04 Aperture macros list*
%AMRoundRect*
0 Rectangle with rounded corners*
0 $1 Rounding radius*
0 $2 $3 $4 $5 $6 $7 $8 $9 X,Y pos of 4 corners*
0 Add a 4 corners polygon primitive as box body*
4,1,4,$2,$3,$4,$5,$6,$7,$8,$9,$2,$3,0*
0 Add four circle primitives for the rounded corners*
1,1,$1+$1,$2,$3*
1,1,$1+$1,$4,$5*
1,1,$1+$1,$6,$7*
1,1,$1+$1,$8,$9*
0 Add four rect primitives between the rounded corners*
20,1,$1+$1,$2,$3,$4,$5,0*
20,1,$1+$1,$4,$5,$6,$7,0*
20,1,$1+$1,$6,$7,$8,$9,0*
20,1,$1+$1,$8,$9,$2,$3,0*%
G04 Aperture macros list end*
G04 #@! TA.AperFunction,ComponentPad*
%ADD10RoundRect,0.250000X-1.050000X-1.050000X1.050000X-1.050000X1.050000X1.050000X-1.050000X1.050000X0*%
G04 #@! TD*
G04 #@! TA.AperFunction,ComponentPad*
%ADD11C,2.600000*%
G04 #@! TD*
G04 #@! TA.AperFunction,ComponentPad*
%ADD12C,1.600000*%
G04 #@! TD*
G04 #@! TA.AperFunction,ComponentPad*
%ADD13R,1.700000X1.700000*%
G04 #@! TD*
G04 #@! TA.AperFunction,ComponentPad*
%ADD14C,1.700000*%
G04 #@! TD*
G04 #@! TA.AperFunction,Conductor*
%ADD15C,0.200000*%
G04 #@! TD*
G04 APERTURE END LIST*
D10*
X111500000Y-91500000D03*
D11*
X116500000Y-91500000D03*
X121500000Y-91500000D03*
X126500000Y-91500000D03*
D12*
X105380000Y-60500000D03*
X113000000Y-60500000D03*
X145380000Y-65500000D03*
X153000000Y-65500000D03*
X123190000Y-61000000D03*
X130810000Y-61000000D03*
D10*
X124500000Y-70500000D03*
D11*
X129500000Y-70500000D03*
X134500000Y-70500000D03*
X139500000Y-70500000D03*
D12*
X131190000Y-55500000D03*
X138810000Y-55500000D03*
D10*
X138500000Y-91500000D03*
D11*
X143500000Y-91500000D03*
X148500000Y-91500000D03*
X153500000Y-91500000D03*
D12*
X111000000Y-68500000D03*
X118620000Y-68500000D03*
X152690000Y-72500000D03*
X160310000Y-72500000D03*
D13*
X108370000Y-48770000D03*
D14*
X108370000Y-46230000D03*
X110910000Y-48770000D03*
X110910000Y-46230000D03*
X113450000Y-48770000D03*
X113450000Y-46230000D03*
X115990000Y-48770000D03*
X115990000Y-46230000D03*
X118530000Y-48770000D03*
X118530000Y-46230000D03*
X121070000Y-48770000D03*
X121070000Y-46230000D03*
X123610000Y-48770000D03*
X123610000Y-46230000D03*
X126150000Y-48770000D03*
X126150000Y-46230000D03*
X128690000Y-48770000D03*
X128690000Y-46230000D03*
X131230000Y-48770000D03*
X131230000Y-46230000D03*
X133770000Y-48770000D03*
X133770000Y-46230000D03*
X136310000Y-48770000D03*
X136310000Y-46230000D03*
X138850000Y-48770000D03*
X138850000Y-46230000D03*
X141390000Y-48770000D03*
X141390000Y-46230000D03*
X143930000Y-48770000D03*
X143930000Y-46230000D03*
X146470000Y-48770000D03*
X146470000Y-46230000D03*
X149010000Y-48770000D03*
X149010000Y-46230000D03*
X151550000Y-48770000D03*
X151550000Y-46230000D03*
X154090000Y-48770000D03*
X154090000Y-46230000D03*
X156630000Y-48770000D03*
X156630000Y-46230000D03*
D15*
X137461000Y-47381000D02*
X138850000Y-48770000D01*
X155360000Y-47500000D02*
X156630000Y-48770000D01*
X131230000Y-46230000D02*
X132381000Y-47381000D01*
X140001000Y-47619000D02*
X142541000Y-47619000D01*
X117379000Y-47619000D02*
X118530000Y-48770000D01*
X142541000Y-47619000D02*
X143930000Y-46230000D01*
X118530000Y-48770000D02*
X119681000Y-47619000D01*
X138850000Y-48770000D02*
X140001000Y-47619000D01*
X124761000Y-47381000D02*
X130079000Y-47381000D01*
X143930000Y-46230000D02*
X145081000Y-47381000D01*
X119681000Y-47619000D02*
X122221000Y-47619000D01*
X149010000Y-46230000D02*
X150280000Y-47500000D01*
X130079000Y-47381000D02*
X131230000Y-46230000D01*
X114839000Y-47619000D02*
X117379000Y-47619000D01*
X150280000Y-47500000D02*
X155360000Y-47500000D01*
X113450000Y-46230000D02*
X114839000Y-47619000D01*
X147859000Y-47381000D02*
X149010000Y-46230000D01*
X145081000Y-47381000D02*
X147859000Y-47381000D01*
X123610000Y-46230000D02*
X124761000Y-47381000D01*
X132381000Y-47381000D02*
X137461000Y-47381000D01*
X122221000Y-47619000D02*
X123610000Y-46230000D01*
X113000000Y-90000000D02*
X114500000Y-91500000D01*
X113000000Y-50860000D02*
X113000000Y-60500000D01*
X110910000Y-48770000D02*
X113000000Y-50860000D01*
X114500000Y-91500000D02*
X116500000Y-91500000D01*
X113000000Y-60500000D02*
X113000000Y-90000000D01*
X113450000Y-48770000D02*
X115810000Y-51130000D01*
X115810000Y-65690000D02*
X118620000Y-68500000D01*
X115810000Y-87810000D02*
X119500000Y-91500000D01*
X119500000Y-91500000D02*
X121500000Y-91500000D01*
X118620000Y-68500000D02*
X115810000Y-71310000D01*
X115810000Y-51130000D02*
X115810000Y-65690000D01*
X115810000Y-71310000D02*
X115810000Y-87810000D01*
X130810000Y-69190000D02*
X129500000Y-70500000D01*
X121070000Y-48770000D02*
X130810000Y-58510000D01*
X130810000Y-61000000D02*
X130810000Y-69190000D01*
X130810000Y-58510000D02*
X130810000Y-61000000D01*
X138810000Y-55500000D02*
X138810000Y-66190000D01*
X137709000Y-54399000D02*
X138810000Y-55500000D01*
X123610000Y-48770000D02*
X129239000Y-54399000D01*
X129239000Y-54399000D02*
X137709000Y-54399000D01*
X138810000Y-66190000D02*
X134500000Y-70500000D01*
X144000000Y-74500000D02*
X144000000Y-91000000D01*
X153000000Y-57840000D02*
X153000000Y-65500000D01*
X144000000Y-91000000D02*
X143500000Y-91500000D01*
X153000000Y-65500000D02*
X144000000Y-74500000D01*
X143930000Y-48770000D02*
X153000000Y-57840000D01*
X160310000Y-62610000D02*
X160310000Y-72500000D01*
X150500000Y-91500000D02*
X148500000Y-91500000D01*
X160310000Y-81690000D02*
X150500000Y-91500000D01*
X146470000Y-48770000D02*
X160310000Y-62610000D01*
X160310000Y-72500000D02*
X160310000Y-81690000D01*
X137899000Y-72101000D02*
X128836844Y-72101000D01*
X126500000Y-93500000D02*
X126500000Y-91500000D01*
X153500000Y-91500000D02*
X153500000Y-93500000D01*
X139500000Y-70500000D02*
X137899000Y-72101000D01*
X126101000Y-60508760D02*
X114601000Y-49008760D01*
X126000000Y-91000000D02*
X126000000Y-84000000D01*
X126101000Y-69365156D02*
X126101000Y-60508760D01*
X128836844Y-72101000D02*
X126101000Y-69365156D01*
X110910000Y-46230000D02*
X108370000Y-46230000D01*
X152399000Y-94601000D02*
X127601000Y-94601000D01*
X153500000Y-93500000D02*
X152399000Y-94601000D01*
X126500000Y-91500000D02*
X126000000Y-91000000D01*
X127601000Y-94601000D02*
X126500000Y-93500000D01*
X113688760Y-47381000D02*
X112061000Y-47381000D01*
X112061000Y-47381000D02*
X110910000Y-46230000D01*
X114601000Y-48293240D02*
X113688760Y-47381000D01*
X114601000Y-49008760D02*
X114601000Y-48293240D01*
X126000000Y-84000000D02*
X139500000Y-70500000D01*
M02*
