%TF.GenerationSoftware,KiCad,Pcbnew,9.0.7*%
%TF.CreationDate,2026-01-29T23:32:27-08:00*%
%TF.ProjectId,encoders,656e636f-6465-4727-932e-6b696361645f,rev?*%
%TF.SameCoordinates,Original*%
%TF.FileFunction,Legend,Top*%
%TF.FilePolarity,Positive*%
%FSLAX46Y46*%
G04 Gerber Fmt 4.6, Leading zero omitted, Abs format (unit mm)*
G04 Created by KiCad (PCBNEW 9.0.7) date 2026-01-29 23:32:27*
%MOMM*%
%LPD*%
G01*
G04 APERTURE LIST*
%ADD10C,0.125000*%
%ADD11C,0.150000*%
%ADD12C,0.600000*%
%ADD13C,0.120000*%
G04 APERTURE END LIST*
D10*
X117914595Y-69272712D02*
X117914595Y-69748902D01*
X117628880Y-69177474D02*
X118628880Y-69510807D01*
X118628880Y-69510807D02*
X117628880Y-69844140D01*
X118152690Y-75082237D02*
X118105071Y-75225094D01*
X118105071Y-75225094D02*
X118057452Y-75272713D01*
X118057452Y-75272713D02*
X117962214Y-75320332D01*
X117962214Y-75320332D02*
X117819357Y-75320332D01*
X117819357Y-75320332D02*
X117724119Y-75272713D01*
X117724119Y-75272713D02*
X117676500Y-75225094D01*
X117676500Y-75225094D02*
X117628880Y-75129856D01*
X117628880Y-75129856D02*
X117628880Y-74748904D01*
X117628880Y-74748904D02*
X118628880Y-74748904D01*
X118628880Y-74748904D02*
X118628880Y-75082237D01*
X118628880Y-75082237D02*
X118581261Y-75177475D01*
X118581261Y-75177475D02*
X118533642Y-75225094D01*
X118533642Y-75225094D02*
X118438404Y-75272713D01*
X118438404Y-75272713D02*
X118343166Y-75272713D01*
X118343166Y-75272713D02*
X118247928Y-75225094D01*
X118247928Y-75225094D02*
X118200309Y-75177475D01*
X118200309Y-75177475D02*
X118152690Y-75082237D01*
X118152690Y-75082237D02*
X118152690Y-74748904D01*
X116272712Y-86585404D02*
X116748902Y-86585404D01*
X116177474Y-86871119D02*
X116510807Y-85871119D01*
X116510807Y-85871119D02*
X116844140Y-86871119D01*
X122082237Y-86347309D02*
X122225094Y-86394928D01*
X122225094Y-86394928D02*
X122272713Y-86442547D01*
X122272713Y-86442547D02*
X122320332Y-86537785D01*
X122320332Y-86537785D02*
X122320332Y-86680642D01*
X122320332Y-86680642D02*
X122272713Y-86775880D01*
X122272713Y-86775880D02*
X122225094Y-86823500D01*
X122225094Y-86823500D02*
X122129856Y-86871119D01*
X122129856Y-86871119D02*
X121748904Y-86871119D01*
X121748904Y-86871119D02*
X121748904Y-85871119D01*
X121748904Y-85871119D02*
X122082237Y-85871119D01*
X122082237Y-85871119D02*
X122177475Y-85918738D01*
X122177475Y-85918738D02*
X122225094Y-85966357D01*
X122225094Y-85966357D02*
X122272713Y-86061595D01*
X122272713Y-86061595D02*
X122272713Y-86156833D01*
X122272713Y-86156833D02*
X122225094Y-86252071D01*
X122225094Y-86252071D02*
X122177475Y-86299690D01*
X122177475Y-86299690D02*
X122082237Y-86347309D01*
X122082237Y-86347309D02*
X121748904Y-86347309D01*
D11*
X162917438Y-91139411D02*
X162869819Y-91234649D01*
X162869819Y-91234649D02*
X162869819Y-91377506D01*
X162869819Y-91377506D02*
X162917438Y-91520363D01*
X162917438Y-91520363D02*
X163012676Y-91615601D01*
X163012676Y-91615601D02*
X163107914Y-91663220D01*
X163107914Y-91663220D02*
X163298390Y-91710839D01*
X163298390Y-91710839D02*
X163441247Y-91710839D01*
X163441247Y-91710839D02*
X163631723Y-91663220D01*
X163631723Y-91663220D02*
X163726961Y-91615601D01*
X163726961Y-91615601D02*
X163822200Y-91520363D01*
X163822200Y-91520363D02*
X163869819Y-91377506D01*
X163869819Y-91377506D02*
X163869819Y-91282268D01*
X163869819Y-91282268D02*
X163822200Y-91139411D01*
X163822200Y-91139411D02*
X163774580Y-91091792D01*
X163774580Y-91091792D02*
X163441247Y-91091792D01*
X163441247Y-91091792D02*
X163441247Y-91282268D01*
X163869819Y-90663220D02*
X162869819Y-90663220D01*
X162869819Y-90663220D02*
X163869819Y-90091792D01*
X163869819Y-90091792D02*
X162869819Y-90091792D01*
X163869819Y-89615601D02*
X162869819Y-89615601D01*
X162869819Y-89615601D02*
X162869819Y-89377506D01*
X162869819Y-89377506D02*
X162917438Y-89234649D01*
X162917438Y-89234649D02*
X163012676Y-89139411D01*
X163012676Y-89139411D02*
X163107914Y-89091792D01*
X163107914Y-89091792D02*
X163298390Y-89044173D01*
X163298390Y-89044173D02*
X163441247Y-89044173D01*
X163441247Y-89044173D02*
X163631723Y-89091792D01*
X163631723Y-89091792D02*
X163726961Y-89139411D01*
X163726961Y-89139411D02*
X163822200Y-89234649D01*
X163822200Y-89234649D02*
X163869819Y-89377506D01*
X163869819Y-89377506D02*
X163869819Y-89615601D01*
X162917438Y-87329887D02*
X162869819Y-87425125D01*
X162869819Y-87425125D02*
X162869819Y-87567982D01*
X162869819Y-87567982D02*
X162917438Y-87710839D01*
X162917438Y-87710839D02*
X163012676Y-87806077D01*
X163012676Y-87806077D02*
X163107914Y-87853696D01*
X163107914Y-87853696D02*
X163298390Y-87901315D01*
X163298390Y-87901315D02*
X163441247Y-87901315D01*
X163441247Y-87901315D02*
X163631723Y-87853696D01*
X163631723Y-87853696D02*
X163726961Y-87806077D01*
X163726961Y-87806077D02*
X163822200Y-87710839D01*
X163822200Y-87710839D02*
X163869819Y-87567982D01*
X163869819Y-87567982D02*
X163869819Y-87472744D01*
X163869819Y-87472744D02*
X163822200Y-87329887D01*
X163822200Y-87329887D02*
X163774580Y-87282268D01*
X163774580Y-87282268D02*
X163441247Y-87282268D01*
X163441247Y-87282268D02*
X163441247Y-87472744D01*
X163869819Y-86853696D02*
X162869819Y-86853696D01*
X162869819Y-86853696D02*
X162869819Y-86472744D01*
X162869819Y-86472744D02*
X162917438Y-86377506D01*
X162917438Y-86377506D02*
X162965057Y-86329887D01*
X162965057Y-86329887D02*
X163060295Y-86282268D01*
X163060295Y-86282268D02*
X163203152Y-86282268D01*
X163203152Y-86282268D02*
X163298390Y-86329887D01*
X163298390Y-86329887D02*
X163346009Y-86377506D01*
X163346009Y-86377506D02*
X163393628Y-86472744D01*
X163393628Y-86472744D02*
X163393628Y-86853696D01*
X163869819Y-85853696D02*
X162869819Y-85853696D01*
X162869819Y-85187030D02*
X162869819Y-84996554D01*
X162869819Y-84996554D02*
X162917438Y-84901316D01*
X162917438Y-84901316D02*
X163012676Y-84806078D01*
X163012676Y-84806078D02*
X163203152Y-84758459D01*
X163203152Y-84758459D02*
X163536485Y-84758459D01*
X163536485Y-84758459D02*
X163726961Y-84806078D01*
X163726961Y-84806078D02*
X163822200Y-84901316D01*
X163822200Y-84901316D02*
X163869819Y-84996554D01*
X163869819Y-84996554D02*
X163869819Y-85187030D01*
X163869819Y-85187030D02*
X163822200Y-85282268D01*
X163822200Y-85282268D02*
X163726961Y-85377506D01*
X163726961Y-85377506D02*
X163536485Y-85425125D01*
X163536485Y-85425125D02*
X163203152Y-85425125D01*
X163203152Y-85425125D02*
X163012676Y-85377506D01*
X163012676Y-85377506D02*
X162917438Y-85282268D01*
X162917438Y-85282268D02*
X162869819Y-85187030D01*
X162965057Y-84377506D02*
X162917438Y-84329887D01*
X162917438Y-84329887D02*
X162869819Y-84234649D01*
X162869819Y-84234649D02*
X162869819Y-83996554D01*
X162869819Y-83996554D02*
X162917438Y-83901316D01*
X162917438Y-83901316D02*
X162965057Y-83853697D01*
X162965057Y-83853697D02*
X163060295Y-83806078D01*
X163060295Y-83806078D02*
X163155533Y-83806078D01*
X163155533Y-83806078D02*
X163298390Y-83853697D01*
X163298390Y-83853697D02*
X163869819Y-84425125D01*
X163869819Y-84425125D02*
X163869819Y-83806078D01*
X162965057Y-83425125D02*
X162917438Y-83377506D01*
X162917438Y-83377506D02*
X162869819Y-83282268D01*
X162869819Y-83282268D02*
X162869819Y-83044173D01*
X162869819Y-83044173D02*
X162917438Y-82948935D01*
X162917438Y-82948935D02*
X162965057Y-82901316D01*
X162965057Y-82901316D02*
X163060295Y-82853697D01*
X163060295Y-82853697D02*
X163155533Y-82853697D01*
X163155533Y-82853697D02*
X163298390Y-82901316D01*
X163298390Y-82901316D02*
X163869819Y-83472744D01*
X163869819Y-83472744D02*
X163869819Y-82853697D01*
X162917438Y-81139411D02*
X162869819Y-81234649D01*
X162869819Y-81234649D02*
X162869819Y-81377506D01*
X162869819Y-81377506D02*
X162917438Y-81520363D01*
X162917438Y-81520363D02*
X163012676Y-81615601D01*
X163012676Y-81615601D02*
X163107914Y-81663220D01*
X163107914Y-81663220D02*
X163298390Y-81710839D01*
X163298390Y-81710839D02*
X163441247Y-81710839D01*
X163441247Y-81710839D02*
X163631723Y-81663220D01*
X163631723Y-81663220D02*
X163726961Y-81615601D01*
X163726961Y-81615601D02*
X163822200Y-81520363D01*
X163822200Y-81520363D02*
X163869819Y-81377506D01*
X163869819Y-81377506D02*
X163869819Y-81282268D01*
X163869819Y-81282268D02*
X163822200Y-81139411D01*
X163822200Y-81139411D02*
X163774580Y-81091792D01*
X163774580Y-81091792D02*
X163441247Y-81091792D01*
X163441247Y-81091792D02*
X163441247Y-81282268D01*
X163869819Y-80663220D02*
X162869819Y-80663220D01*
X162869819Y-80663220D02*
X162869819Y-80282268D01*
X162869819Y-80282268D02*
X162917438Y-80187030D01*
X162917438Y-80187030D02*
X162965057Y-80139411D01*
X162965057Y-80139411D02*
X163060295Y-80091792D01*
X163060295Y-80091792D02*
X163203152Y-80091792D01*
X163203152Y-80091792D02*
X163298390Y-80139411D01*
X163298390Y-80139411D02*
X163346009Y-80187030D01*
X163346009Y-80187030D02*
X163393628Y-80282268D01*
X163393628Y-80282268D02*
X163393628Y-80663220D01*
X163869819Y-79663220D02*
X162869819Y-79663220D01*
X162869819Y-78996554D02*
X162869819Y-78806078D01*
X162869819Y-78806078D02*
X162917438Y-78710840D01*
X162917438Y-78710840D02*
X163012676Y-78615602D01*
X163012676Y-78615602D02*
X163203152Y-78567983D01*
X163203152Y-78567983D02*
X163536485Y-78567983D01*
X163536485Y-78567983D02*
X163726961Y-78615602D01*
X163726961Y-78615602D02*
X163822200Y-78710840D01*
X163822200Y-78710840D02*
X163869819Y-78806078D01*
X163869819Y-78806078D02*
X163869819Y-78996554D01*
X163869819Y-78996554D02*
X163822200Y-79091792D01*
X163822200Y-79091792D02*
X163726961Y-79187030D01*
X163726961Y-79187030D02*
X163536485Y-79234649D01*
X163536485Y-79234649D02*
X163203152Y-79234649D01*
X163203152Y-79234649D02*
X163012676Y-79187030D01*
X163012676Y-79187030D02*
X162917438Y-79091792D01*
X162917438Y-79091792D02*
X162869819Y-78996554D01*
X162965057Y-78187030D02*
X162917438Y-78139411D01*
X162917438Y-78139411D02*
X162869819Y-78044173D01*
X162869819Y-78044173D02*
X162869819Y-77806078D01*
X162869819Y-77806078D02*
X162917438Y-77710840D01*
X162917438Y-77710840D02*
X162965057Y-77663221D01*
X162965057Y-77663221D02*
X163060295Y-77615602D01*
X163060295Y-77615602D02*
X163155533Y-77615602D01*
X163155533Y-77615602D02*
X163298390Y-77663221D01*
X163298390Y-77663221D02*
X163869819Y-78234649D01*
X163869819Y-78234649D02*
X163869819Y-77615602D01*
X162869819Y-77282268D02*
X162869819Y-76615602D01*
X162869819Y-76615602D02*
X163869819Y-77044173D01*
X163488866Y-75472744D02*
X163488866Y-74710840D01*
X163869819Y-75091792D02*
X163107914Y-75091792D01*
X162869819Y-73758459D02*
X162869819Y-74234649D01*
X162869819Y-74234649D02*
X163346009Y-74282268D01*
X163346009Y-74282268D02*
X163298390Y-74234649D01*
X163298390Y-74234649D02*
X163250771Y-74139411D01*
X163250771Y-74139411D02*
X163250771Y-73901316D01*
X163250771Y-73901316D02*
X163298390Y-73806078D01*
X163298390Y-73806078D02*
X163346009Y-73758459D01*
X163346009Y-73758459D02*
X163441247Y-73710840D01*
X163441247Y-73710840D02*
X163679342Y-73710840D01*
X163679342Y-73710840D02*
X163774580Y-73758459D01*
X163774580Y-73758459D02*
X163822200Y-73806078D01*
X163822200Y-73806078D02*
X163869819Y-73901316D01*
X163869819Y-73901316D02*
X163869819Y-74139411D01*
X163869819Y-74139411D02*
X163822200Y-74234649D01*
X163822200Y-74234649D02*
X163774580Y-74282268D01*
X162869819Y-73425125D02*
X163869819Y-73091792D01*
X163869819Y-73091792D02*
X162869819Y-72758459D01*
D12*
X119180450Y-85673085D02*
X119180450Y-87101657D01*
X118180450Y-84101657D02*
X119180450Y-85673085D01*
X119180450Y-85673085D02*
X120180450Y-84101657D01*
D10*
X150871119Y-65179668D02*
X149871119Y-65179668D01*
X149871119Y-65179668D02*
X150871119Y-64608240D01*
X150871119Y-64608240D02*
X149871119Y-64608240D01*
X149871119Y-63941573D02*
X149871119Y-63751097D01*
X149871119Y-63751097D02*
X149918738Y-63655859D01*
X149918738Y-63655859D02*
X150013976Y-63560621D01*
X150013976Y-63560621D02*
X150204452Y-63513002D01*
X150204452Y-63513002D02*
X150537785Y-63513002D01*
X150537785Y-63513002D02*
X150728261Y-63560621D01*
X150728261Y-63560621D02*
X150823500Y-63655859D01*
X150823500Y-63655859D02*
X150871119Y-63751097D01*
X150871119Y-63751097D02*
X150871119Y-63941573D01*
X150871119Y-63941573D02*
X150823500Y-64036811D01*
X150823500Y-64036811D02*
X150728261Y-64132049D01*
X150728261Y-64132049D02*
X150537785Y-64179668D01*
X150537785Y-64179668D02*
X150204452Y-64179668D01*
X150204452Y-64179668D02*
X150013976Y-64132049D01*
X150013976Y-64132049D02*
X149918738Y-64036811D01*
X149918738Y-64036811D02*
X149871119Y-63941573D01*
X150775880Y-69608240D02*
X150823500Y-69655859D01*
X150823500Y-69655859D02*
X150871119Y-69798716D01*
X150871119Y-69798716D02*
X150871119Y-69893954D01*
X150871119Y-69893954D02*
X150823500Y-70036811D01*
X150823500Y-70036811D02*
X150728261Y-70132049D01*
X150728261Y-70132049D02*
X150633023Y-70179668D01*
X150633023Y-70179668D02*
X150442547Y-70227287D01*
X150442547Y-70227287D02*
X150299690Y-70227287D01*
X150299690Y-70227287D02*
X150109214Y-70179668D01*
X150109214Y-70179668D02*
X150013976Y-70132049D01*
X150013976Y-70132049D02*
X149918738Y-70036811D01*
X149918738Y-70036811D02*
X149871119Y-69893954D01*
X149871119Y-69893954D02*
X149871119Y-69798716D01*
X149871119Y-69798716D02*
X149918738Y-69655859D01*
X149918738Y-69655859D02*
X149966357Y-69608240D01*
X149871119Y-68989192D02*
X149871119Y-68798716D01*
X149871119Y-68798716D02*
X149918738Y-68703478D01*
X149918738Y-68703478D02*
X150013976Y-68608240D01*
X150013976Y-68608240D02*
X150204452Y-68560621D01*
X150204452Y-68560621D02*
X150537785Y-68560621D01*
X150537785Y-68560621D02*
X150728261Y-68608240D01*
X150728261Y-68608240D02*
X150823500Y-68703478D01*
X150823500Y-68703478D02*
X150871119Y-68798716D01*
X150871119Y-68798716D02*
X150871119Y-68989192D01*
X150871119Y-68989192D02*
X150823500Y-69084430D01*
X150823500Y-69084430D02*
X150728261Y-69179668D01*
X150728261Y-69179668D02*
X150537785Y-69227287D01*
X150537785Y-69227287D02*
X150204452Y-69227287D01*
X150204452Y-69227287D02*
X150013976Y-69179668D01*
X150013976Y-69179668D02*
X149918738Y-69084430D01*
X149918738Y-69084430D02*
X149871119Y-68989192D01*
X150871119Y-68132049D02*
X149871119Y-68132049D01*
X149871119Y-68132049D02*
X150585404Y-67798716D01*
X150585404Y-67798716D02*
X149871119Y-67465383D01*
X149871119Y-67465383D02*
X150871119Y-67465383D01*
D11*
X106082561Y-64360588D02*
X106130180Y-64265350D01*
X106130180Y-64265350D02*
X106130180Y-64122493D01*
X106130180Y-64122493D02*
X106082561Y-63979636D01*
X106082561Y-63979636D02*
X105987323Y-63884398D01*
X105987323Y-63884398D02*
X105892085Y-63836779D01*
X105892085Y-63836779D02*
X105701609Y-63789160D01*
X105701609Y-63789160D02*
X105558752Y-63789160D01*
X105558752Y-63789160D02*
X105368276Y-63836779D01*
X105368276Y-63836779D02*
X105273038Y-63884398D01*
X105273038Y-63884398D02*
X105177800Y-63979636D01*
X105177800Y-63979636D02*
X105130180Y-64122493D01*
X105130180Y-64122493D02*
X105130180Y-64217731D01*
X105130180Y-64217731D02*
X105177800Y-64360588D01*
X105177800Y-64360588D02*
X105225419Y-64408207D01*
X105225419Y-64408207D02*
X105558752Y-64408207D01*
X105558752Y-64408207D02*
X105558752Y-64217731D01*
X105130180Y-64836779D02*
X106130180Y-64836779D01*
X106130180Y-64836779D02*
X105130180Y-65408207D01*
X105130180Y-65408207D02*
X106130180Y-65408207D01*
X105130180Y-65884398D02*
X106130180Y-65884398D01*
X106130180Y-65884398D02*
X106130180Y-66122493D01*
X106130180Y-66122493D02*
X106082561Y-66265350D01*
X106082561Y-66265350D02*
X105987323Y-66360588D01*
X105987323Y-66360588D02*
X105892085Y-66408207D01*
X105892085Y-66408207D02*
X105701609Y-66455826D01*
X105701609Y-66455826D02*
X105558752Y-66455826D01*
X105558752Y-66455826D02*
X105368276Y-66408207D01*
X105368276Y-66408207D02*
X105273038Y-66360588D01*
X105273038Y-66360588D02*
X105177800Y-66265350D01*
X105177800Y-66265350D02*
X105130180Y-66122493D01*
X105130180Y-66122493D02*
X105130180Y-65884398D01*
X106082561Y-68170112D02*
X106130180Y-68074874D01*
X106130180Y-68074874D02*
X106130180Y-67932017D01*
X106130180Y-67932017D02*
X106082561Y-67789160D01*
X106082561Y-67789160D02*
X105987323Y-67693922D01*
X105987323Y-67693922D02*
X105892085Y-67646303D01*
X105892085Y-67646303D02*
X105701609Y-67598684D01*
X105701609Y-67598684D02*
X105558752Y-67598684D01*
X105558752Y-67598684D02*
X105368276Y-67646303D01*
X105368276Y-67646303D02*
X105273038Y-67693922D01*
X105273038Y-67693922D02*
X105177800Y-67789160D01*
X105177800Y-67789160D02*
X105130180Y-67932017D01*
X105130180Y-67932017D02*
X105130180Y-68027255D01*
X105130180Y-68027255D02*
X105177800Y-68170112D01*
X105177800Y-68170112D02*
X105225419Y-68217731D01*
X105225419Y-68217731D02*
X105558752Y-68217731D01*
X105558752Y-68217731D02*
X105558752Y-68027255D01*
X105130180Y-68646303D02*
X106130180Y-68646303D01*
X106130180Y-68646303D02*
X106130180Y-69027255D01*
X106130180Y-69027255D02*
X106082561Y-69122493D01*
X106082561Y-69122493D02*
X106034942Y-69170112D01*
X106034942Y-69170112D02*
X105939704Y-69217731D01*
X105939704Y-69217731D02*
X105796847Y-69217731D01*
X105796847Y-69217731D02*
X105701609Y-69170112D01*
X105701609Y-69170112D02*
X105653990Y-69122493D01*
X105653990Y-69122493D02*
X105606371Y-69027255D01*
X105606371Y-69027255D02*
X105606371Y-68646303D01*
X105130180Y-69646303D02*
X106130180Y-69646303D01*
X106130180Y-70312969D02*
X106130180Y-70503445D01*
X106130180Y-70503445D02*
X106082561Y-70598683D01*
X106082561Y-70598683D02*
X105987323Y-70693921D01*
X105987323Y-70693921D02*
X105796847Y-70741540D01*
X105796847Y-70741540D02*
X105463514Y-70741540D01*
X105463514Y-70741540D02*
X105273038Y-70693921D01*
X105273038Y-70693921D02*
X105177800Y-70598683D01*
X105177800Y-70598683D02*
X105130180Y-70503445D01*
X105130180Y-70503445D02*
X105130180Y-70312969D01*
X105130180Y-70312969D02*
X105177800Y-70217731D01*
X105177800Y-70217731D02*
X105273038Y-70122493D01*
X105273038Y-70122493D02*
X105463514Y-70074874D01*
X105463514Y-70074874D02*
X105796847Y-70074874D01*
X105796847Y-70074874D02*
X105987323Y-70122493D01*
X105987323Y-70122493D02*
X106082561Y-70217731D01*
X106082561Y-70217731D02*
X106130180Y-70312969D01*
X106130180Y-71074874D02*
X106130180Y-71693921D01*
X106130180Y-71693921D02*
X105749228Y-71360588D01*
X105749228Y-71360588D02*
X105749228Y-71503445D01*
X105749228Y-71503445D02*
X105701609Y-71598683D01*
X105701609Y-71598683D02*
X105653990Y-71646302D01*
X105653990Y-71646302D02*
X105558752Y-71693921D01*
X105558752Y-71693921D02*
X105320657Y-71693921D01*
X105320657Y-71693921D02*
X105225419Y-71646302D01*
X105225419Y-71646302D02*
X105177800Y-71598683D01*
X105177800Y-71598683D02*
X105130180Y-71503445D01*
X105130180Y-71503445D02*
X105130180Y-71217731D01*
X105130180Y-71217731D02*
X105177800Y-71122493D01*
X105177800Y-71122493D02*
X105225419Y-71074874D01*
X106082561Y-73408207D02*
X106130180Y-73312969D01*
X106130180Y-73312969D02*
X106130180Y-73170112D01*
X106130180Y-73170112D02*
X106082561Y-73027255D01*
X106082561Y-73027255D02*
X105987323Y-72932017D01*
X105987323Y-72932017D02*
X105892085Y-72884398D01*
X105892085Y-72884398D02*
X105701609Y-72836779D01*
X105701609Y-72836779D02*
X105558752Y-72836779D01*
X105558752Y-72836779D02*
X105368276Y-72884398D01*
X105368276Y-72884398D02*
X105273038Y-72932017D01*
X105273038Y-72932017D02*
X105177800Y-73027255D01*
X105177800Y-73027255D02*
X105130180Y-73170112D01*
X105130180Y-73170112D02*
X105130180Y-73265350D01*
X105130180Y-73265350D02*
X105177800Y-73408207D01*
X105177800Y-73408207D02*
X105225419Y-73455826D01*
X105225419Y-73455826D02*
X105558752Y-73455826D01*
X105558752Y-73455826D02*
X105558752Y-73265350D01*
X105130180Y-73884398D02*
X106130180Y-73884398D01*
X106130180Y-73884398D02*
X106130180Y-74265350D01*
X106130180Y-74265350D02*
X106082561Y-74360588D01*
X106082561Y-74360588D02*
X106034942Y-74408207D01*
X106034942Y-74408207D02*
X105939704Y-74455826D01*
X105939704Y-74455826D02*
X105796847Y-74455826D01*
X105796847Y-74455826D02*
X105701609Y-74408207D01*
X105701609Y-74408207D02*
X105653990Y-74360588D01*
X105653990Y-74360588D02*
X105606371Y-74265350D01*
X105606371Y-74265350D02*
X105606371Y-73884398D01*
X105130180Y-74884398D02*
X106130180Y-74884398D01*
X106130180Y-75551064D02*
X106130180Y-75741540D01*
X106130180Y-75741540D02*
X106082561Y-75836778D01*
X106082561Y-75836778D02*
X105987323Y-75932016D01*
X105987323Y-75932016D02*
X105796847Y-75979635D01*
X105796847Y-75979635D02*
X105463514Y-75979635D01*
X105463514Y-75979635D02*
X105273038Y-75932016D01*
X105273038Y-75932016D02*
X105177800Y-75836778D01*
X105177800Y-75836778D02*
X105130180Y-75741540D01*
X105130180Y-75741540D02*
X105130180Y-75551064D01*
X105130180Y-75551064D02*
X105177800Y-75455826D01*
X105177800Y-75455826D02*
X105273038Y-75360588D01*
X105273038Y-75360588D02*
X105463514Y-75312969D01*
X105463514Y-75312969D02*
X105796847Y-75312969D01*
X105796847Y-75312969D02*
X105987323Y-75360588D01*
X105987323Y-75360588D02*
X106082561Y-75455826D01*
X106082561Y-75455826D02*
X106130180Y-75551064D01*
X106034942Y-76360588D02*
X106082561Y-76408207D01*
X106082561Y-76408207D02*
X106130180Y-76503445D01*
X106130180Y-76503445D02*
X106130180Y-76741540D01*
X106130180Y-76741540D02*
X106082561Y-76836778D01*
X106082561Y-76836778D02*
X106034942Y-76884397D01*
X106034942Y-76884397D02*
X105939704Y-76932016D01*
X105939704Y-76932016D02*
X105844466Y-76932016D01*
X105844466Y-76932016D02*
X105701609Y-76884397D01*
X105701609Y-76884397D02*
X105130180Y-76312969D01*
X105130180Y-76312969D02*
X105130180Y-76932016D01*
X105511133Y-78122493D02*
X105511133Y-78884398D01*
X105130180Y-78503445D02*
X105892085Y-78503445D01*
X106130180Y-79836778D02*
X106130180Y-79360588D01*
X106130180Y-79360588D02*
X105653990Y-79312969D01*
X105653990Y-79312969D02*
X105701609Y-79360588D01*
X105701609Y-79360588D02*
X105749228Y-79455826D01*
X105749228Y-79455826D02*
X105749228Y-79693921D01*
X105749228Y-79693921D02*
X105701609Y-79789159D01*
X105701609Y-79789159D02*
X105653990Y-79836778D01*
X105653990Y-79836778D02*
X105558752Y-79884397D01*
X105558752Y-79884397D02*
X105320657Y-79884397D01*
X105320657Y-79884397D02*
X105225419Y-79836778D01*
X105225419Y-79836778D02*
X105177800Y-79789159D01*
X105177800Y-79789159D02*
X105130180Y-79693921D01*
X105130180Y-79693921D02*
X105130180Y-79455826D01*
X105130180Y-79455826D02*
X105177800Y-79360588D01*
X105177800Y-79360588D02*
X105225419Y-79312969D01*
X106130180Y-80170112D02*
X105130180Y-80503445D01*
X105130180Y-80503445D02*
X106130180Y-80836778D01*
X162917438Y-70139411D02*
X162869819Y-70234649D01*
X162869819Y-70234649D02*
X162869819Y-70377506D01*
X162869819Y-70377506D02*
X162917438Y-70520363D01*
X162917438Y-70520363D02*
X163012676Y-70615601D01*
X163012676Y-70615601D02*
X163107914Y-70663220D01*
X163107914Y-70663220D02*
X163298390Y-70710839D01*
X163298390Y-70710839D02*
X163441247Y-70710839D01*
X163441247Y-70710839D02*
X163631723Y-70663220D01*
X163631723Y-70663220D02*
X163726961Y-70615601D01*
X163726961Y-70615601D02*
X163822200Y-70520363D01*
X163822200Y-70520363D02*
X163869819Y-70377506D01*
X163869819Y-70377506D02*
X163869819Y-70282268D01*
X163869819Y-70282268D02*
X163822200Y-70139411D01*
X163822200Y-70139411D02*
X163774580Y-70091792D01*
X163774580Y-70091792D02*
X163441247Y-70091792D01*
X163441247Y-70091792D02*
X163441247Y-70282268D01*
X163869819Y-69663220D02*
X162869819Y-69663220D01*
X162869819Y-69663220D02*
X163869819Y-69091792D01*
X163869819Y-69091792D02*
X162869819Y-69091792D01*
X163869819Y-68615601D02*
X162869819Y-68615601D01*
X162869819Y-68615601D02*
X162869819Y-68377506D01*
X162869819Y-68377506D02*
X162917438Y-68234649D01*
X162917438Y-68234649D02*
X163012676Y-68139411D01*
X163012676Y-68139411D02*
X163107914Y-68091792D01*
X163107914Y-68091792D02*
X163298390Y-68044173D01*
X163298390Y-68044173D02*
X163441247Y-68044173D01*
X163441247Y-68044173D02*
X163631723Y-68091792D01*
X163631723Y-68091792D02*
X163726961Y-68139411D01*
X163726961Y-68139411D02*
X163822200Y-68234649D01*
X163822200Y-68234649D02*
X163869819Y-68377506D01*
X163869819Y-68377506D02*
X163869819Y-68615601D01*
X162917438Y-66329887D02*
X162869819Y-66425125D01*
X162869819Y-66425125D02*
X162869819Y-66567982D01*
X162869819Y-66567982D02*
X162917438Y-66710839D01*
X162917438Y-66710839D02*
X163012676Y-66806077D01*
X163012676Y-66806077D02*
X163107914Y-66853696D01*
X163107914Y-66853696D02*
X163298390Y-66901315D01*
X163298390Y-66901315D02*
X163441247Y-66901315D01*
X163441247Y-66901315D02*
X163631723Y-66853696D01*
X163631723Y-66853696D02*
X163726961Y-66806077D01*
X163726961Y-66806077D02*
X163822200Y-66710839D01*
X163822200Y-66710839D02*
X163869819Y-66567982D01*
X163869819Y-66567982D02*
X163869819Y-66472744D01*
X163869819Y-66472744D02*
X163822200Y-66329887D01*
X163822200Y-66329887D02*
X163774580Y-66282268D01*
X163774580Y-66282268D02*
X163441247Y-66282268D01*
X163441247Y-66282268D02*
X163441247Y-66472744D01*
X163869819Y-65853696D02*
X162869819Y-65853696D01*
X162869819Y-65853696D02*
X162869819Y-65472744D01*
X162869819Y-65472744D02*
X162917438Y-65377506D01*
X162917438Y-65377506D02*
X162965057Y-65329887D01*
X162965057Y-65329887D02*
X163060295Y-65282268D01*
X163060295Y-65282268D02*
X163203152Y-65282268D01*
X163203152Y-65282268D02*
X163298390Y-65329887D01*
X163298390Y-65329887D02*
X163346009Y-65377506D01*
X163346009Y-65377506D02*
X163393628Y-65472744D01*
X163393628Y-65472744D02*
X163393628Y-65853696D01*
X163869819Y-64853696D02*
X162869819Y-64853696D01*
X162869819Y-64187030D02*
X162869819Y-63996554D01*
X162869819Y-63996554D02*
X162917438Y-63901316D01*
X162917438Y-63901316D02*
X163012676Y-63806078D01*
X163012676Y-63806078D02*
X163203152Y-63758459D01*
X163203152Y-63758459D02*
X163536485Y-63758459D01*
X163536485Y-63758459D02*
X163726961Y-63806078D01*
X163726961Y-63806078D02*
X163822200Y-63901316D01*
X163822200Y-63901316D02*
X163869819Y-63996554D01*
X163869819Y-63996554D02*
X163869819Y-64187030D01*
X163869819Y-64187030D02*
X163822200Y-64282268D01*
X163822200Y-64282268D02*
X163726961Y-64377506D01*
X163726961Y-64377506D02*
X163536485Y-64425125D01*
X163536485Y-64425125D02*
X163203152Y-64425125D01*
X163203152Y-64425125D02*
X163012676Y-64377506D01*
X163012676Y-64377506D02*
X162917438Y-64282268D01*
X162917438Y-64282268D02*
X162869819Y-64187030D01*
X163869819Y-62806078D02*
X163869819Y-63377506D01*
X163869819Y-63091792D02*
X162869819Y-63091792D01*
X162869819Y-63091792D02*
X163012676Y-63187030D01*
X163012676Y-63187030D02*
X163107914Y-63282268D01*
X163107914Y-63282268D02*
X163155533Y-63377506D01*
X162869819Y-62472744D02*
X162869819Y-61806078D01*
X162869819Y-61806078D02*
X163869819Y-62234649D01*
X162917438Y-60139411D02*
X162869819Y-60234649D01*
X162869819Y-60234649D02*
X162869819Y-60377506D01*
X162869819Y-60377506D02*
X162917438Y-60520363D01*
X162917438Y-60520363D02*
X163012676Y-60615601D01*
X163012676Y-60615601D02*
X163107914Y-60663220D01*
X163107914Y-60663220D02*
X163298390Y-60710839D01*
X163298390Y-60710839D02*
X163441247Y-60710839D01*
X163441247Y-60710839D02*
X163631723Y-60663220D01*
X163631723Y-60663220D02*
X163726961Y-60615601D01*
X163726961Y-60615601D02*
X163822200Y-60520363D01*
X163822200Y-60520363D02*
X163869819Y-60377506D01*
X163869819Y-60377506D02*
X163869819Y-60282268D01*
X163869819Y-60282268D02*
X163822200Y-60139411D01*
X163822200Y-60139411D02*
X163774580Y-60091792D01*
X163774580Y-60091792D02*
X163441247Y-60091792D01*
X163441247Y-60091792D02*
X163441247Y-60282268D01*
X163869819Y-59663220D02*
X162869819Y-59663220D01*
X162869819Y-59663220D02*
X162869819Y-59282268D01*
X162869819Y-59282268D02*
X162917438Y-59187030D01*
X162917438Y-59187030D02*
X162965057Y-59139411D01*
X162965057Y-59139411D02*
X163060295Y-59091792D01*
X163060295Y-59091792D02*
X163203152Y-59091792D01*
X163203152Y-59091792D02*
X163298390Y-59139411D01*
X163298390Y-59139411D02*
X163346009Y-59187030D01*
X163346009Y-59187030D02*
X163393628Y-59282268D01*
X163393628Y-59282268D02*
X163393628Y-59663220D01*
X163869819Y-58663220D02*
X162869819Y-58663220D01*
X162869819Y-57996554D02*
X162869819Y-57806078D01*
X162869819Y-57806078D02*
X162917438Y-57710840D01*
X162917438Y-57710840D02*
X163012676Y-57615602D01*
X163012676Y-57615602D02*
X163203152Y-57567983D01*
X163203152Y-57567983D02*
X163536485Y-57567983D01*
X163536485Y-57567983D02*
X163726961Y-57615602D01*
X163726961Y-57615602D02*
X163822200Y-57710840D01*
X163822200Y-57710840D02*
X163869819Y-57806078D01*
X163869819Y-57806078D02*
X163869819Y-57996554D01*
X163869819Y-57996554D02*
X163822200Y-58091792D01*
X163822200Y-58091792D02*
X163726961Y-58187030D01*
X163726961Y-58187030D02*
X163536485Y-58234649D01*
X163536485Y-58234649D02*
X163203152Y-58234649D01*
X163203152Y-58234649D02*
X163012676Y-58187030D01*
X163012676Y-58187030D02*
X162917438Y-58091792D01*
X162917438Y-58091792D02*
X162869819Y-57996554D01*
X163203152Y-56710840D02*
X163869819Y-56710840D01*
X162822200Y-56948935D02*
X163536485Y-57187030D01*
X163536485Y-57187030D02*
X163536485Y-56567983D01*
X163488866Y-55425125D02*
X163488866Y-54663221D01*
X163869819Y-55044173D02*
X163107914Y-55044173D01*
X162869819Y-53710840D02*
X162869819Y-54187030D01*
X162869819Y-54187030D02*
X163346009Y-54234649D01*
X163346009Y-54234649D02*
X163298390Y-54187030D01*
X163298390Y-54187030D02*
X163250771Y-54091792D01*
X163250771Y-54091792D02*
X163250771Y-53853697D01*
X163250771Y-53853697D02*
X163298390Y-53758459D01*
X163298390Y-53758459D02*
X163346009Y-53710840D01*
X163346009Y-53710840D02*
X163441247Y-53663221D01*
X163441247Y-53663221D02*
X163679342Y-53663221D01*
X163679342Y-53663221D02*
X163774580Y-53710840D01*
X163774580Y-53710840D02*
X163822200Y-53758459D01*
X163822200Y-53758459D02*
X163869819Y-53853697D01*
X163869819Y-53853697D02*
X163869819Y-54091792D01*
X163869819Y-54091792D02*
X163822200Y-54187030D01*
X163822200Y-54187030D02*
X163774580Y-54234649D01*
X162869819Y-53377506D02*
X163869819Y-53044173D01*
X163869819Y-53044173D02*
X162869819Y-52710840D01*
D12*
X120398342Y-71323307D02*
X117398342Y-73323307D01*
X120398342Y-73323307D02*
X117398342Y-71323307D01*
X139823307Y-83601657D02*
X141823307Y-83601657D01*
X141823307Y-83601657D02*
X139823307Y-86601657D01*
X139823307Y-86601657D02*
X141823307Y-86601657D01*
D10*
X150585404Y-85227287D02*
X150585404Y-84751097D01*
X150871119Y-85322525D02*
X149871119Y-84989192D01*
X149871119Y-84989192D02*
X150871119Y-84655859D01*
X150347309Y-79417762D02*
X150394928Y-79274905D01*
X150394928Y-79274905D02*
X150442547Y-79227286D01*
X150442547Y-79227286D02*
X150537785Y-79179667D01*
X150537785Y-79179667D02*
X150680642Y-79179667D01*
X150680642Y-79179667D02*
X150775880Y-79227286D01*
X150775880Y-79227286D02*
X150823500Y-79274905D01*
X150823500Y-79274905D02*
X150871119Y-79370143D01*
X150871119Y-79370143D02*
X150871119Y-79751095D01*
X150871119Y-79751095D02*
X149871119Y-79751095D01*
X149871119Y-79751095D02*
X149871119Y-79417762D01*
X149871119Y-79417762D02*
X149918738Y-79322524D01*
X149918738Y-79322524D02*
X149966357Y-79274905D01*
X149966357Y-79274905D02*
X150061595Y-79227286D01*
X150061595Y-79227286D02*
X150156833Y-79227286D01*
X150156833Y-79227286D02*
X150252071Y-79274905D01*
X150252071Y-79274905D02*
X150299690Y-79322524D01*
X150299690Y-79322524D02*
X150347309Y-79417762D01*
X150347309Y-79417762D02*
X150347309Y-79751095D01*
X137772712Y-86585404D02*
X138248902Y-86585404D01*
X137677474Y-86871119D02*
X138010807Y-85871119D01*
X138010807Y-85871119D02*
X138344140Y-86871119D01*
X143582237Y-86347309D02*
X143725094Y-86394928D01*
X143725094Y-86394928D02*
X143772713Y-86442547D01*
X143772713Y-86442547D02*
X143820332Y-86537785D01*
X143820332Y-86537785D02*
X143820332Y-86680642D01*
X143820332Y-86680642D02*
X143772713Y-86775880D01*
X143772713Y-86775880D02*
X143725094Y-86823500D01*
X143725094Y-86823500D02*
X143629856Y-86871119D01*
X143629856Y-86871119D02*
X143248904Y-86871119D01*
X143248904Y-86871119D02*
X143248904Y-85871119D01*
X143248904Y-85871119D02*
X143582237Y-85871119D01*
X143582237Y-85871119D02*
X143677475Y-85918738D01*
X143677475Y-85918738D02*
X143725094Y-85966357D01*
X143725094Y-85966357D02*
X143772713Y-86061595D01*
X143772713Y-86061595D02*
X143772713Y-86156833D01*
X143772713Y-86156833D02*
X143725094Y-86252071D01*
X143725094Y-86252071D02*
X143677475Y-86299690D01*
X143677475Y-86299690D02*
X143582237Y-86347309D01*
X143582237Y-86347309D02*
X143248904Y-86347309D01*
D11*
X132360588Y-98417438D02*
X132265350Y-98369819D01*
X132265350Y-98369819D02*
X132122493Y-98369819D01*
X132122493Y-98369819D02*
X131979636Y-98417438D01*
X131979636Y-98417438D02*
X131884398Y-98512676D01*
X131884398Y-98512676D02*
X131836779Y-98607914D01*
X131836779Y-98607914D02*
X131789160Y-98798390D01*
X131789160Y-98798390D02*
X131789160Y-98941247D01*
X131789160Y-98941247D02*
X131836779Y-99131723D01*
X131836779Y-99131723D02*
X131884398Y-99226961D01*
X131884398Y-99226961D02*
X131979636Y-99322200D01*
X131979636Y-99322200D02*
X132122493Y-99369819D01*
X132122493Y-99369819D02*
X132217731Y-99369819D01*
X132217731Y-99369819D02*
X132360588Y-99322200D01*
X132360588Y-99322200D02*
X132408207Y-99274580D01*
X132408207Y-99274580D02*
X132408207Y-98941247D01*
X132408207Y-98941247D02*
X132217731Y-98941247D01*
X132836779Y-99369819D02*
X132836779Y-98369819D01*
X132836779Y-98369819D02*
X133408207Y-99369819D01*
X133408207Y-99369819D02*
X133408207Y-98369819D01*
X133884398Y-99369819D02*
X133884398Y-98369819D01*
X133884398Y-98369819D02*
X134122493Y-98369819D01*
X134122493Y-98369819D02*
X134265350Y-98417438D01*
X134265350Y-98417438D02*
X134360588Y-98512676D01*
X134360588Y-98512676D02*
X134408207Y-98607914D01*
X134408207Y-98607914D02*
X134455826Y-98798390D01*
X134455826Y-98798390D02*
X134455826Y-98941247D01*
X134455826Y-98941247D02*
X134408207Y-99131723D01*
X134408207Y-99131723D02*
X134360588Y-99226961D01*
X134360588Y-99226961D02*
X134265350Y-99322200D01*
X134265350Y-99322200D02*
X134122493Y-99369819D01*
X134122493Y-99369819D02*
X133884398Y-99369819D01*
X136170112Y-98417438D02*
X136074874Y-98369819D01*
X136074874Y-98369819D02*
X135932017Y-98369819D01*
X135932017Y-98369819D02*
X135789160Y-98417438D01*
X135789160Y-98417438D02*
X135693922Y-98512676D01*
X135693922Y-98512676D02*
X135646303Y-98607914D01*
X135646303Y-98607914D02*
X135598684Y-98798390D01*
X135598684Y-98798390D02*
X135598684Y-98941247D01*
X135598684Y-98941247D02*
X135646303Y-99131723D01*
X135646303Y-99131723D02*
X135693922Y-99226961D01*
X135693922Y-99226961D02*
X135789160Y-99322200D01*
X135789160Y-99322200D02*
X135932017Y-99369819D01*
X135932017Y-99369819D02*
X136027255Y-99369819D01*
X136027255Y-99369819D02*
X136170112Y-99322200D01*
X136170112Y-99322200D02*
X136217731Y-99274580D01*
X136217731Y-99274580D02*
X136217731Y-98941247D01*
X136217731Y-98941247D02*
X136027255Y-98941247D01*
X136646303Y-99369819D02*
X136646303Y-98369819D01*
X136646303Y-98369819D02*
X137027255Y-98369819D01*
X137027255Y-98369819D02*
X137122493Y-98417438D01*
X137122493Y-98417438D02*
X137170112Y-98465057D01*
X137170112Y-98465057D02*
X137217731Y-98560295D01*
X137217731Y-98560295D02*
X137217731Y-98703152D01*
X137217731Y-98703152D02*
X137170112Y-98798390D01*
X137170112Y-98798390D02*
X137122493Y-98846009D01*
X137122493Y-98846009D02*
X137027255Y-98893628D01*
X137027255Y-98893628D02*
X136646303Y-98893628D01*
X137646303Y-99369819D02*
X137646303Y-98369819D01*
X138312969Y-98369819D02*
X138503445Y-98369819D01*
X138503445Y-98369819D02*
X138598683Y-98417438D01*
X138598683Y-98417438D02*
X138693921Y-98512676D01*
X138693921Y-98512676D02*
X138741540Y-98703152D01*
X138741540Y-98703152D02*
X138741540Y-99036485D01*
X138741540Y-99036485D02*
X138693921Y-99226961D01*
X138693921Y-99226961D02*
X138598683Y-99322200D01*
X138598683Y-99322200D02*
X138503445Y-99369819D01*
X138503445Y-99369819D02*
X138312969Y-99369819D01*
X138312969Y-99369819D02*
X138217731Y-99322200D01*
X138217731Y-99322200D02*
X138122493Y-99226961D01*
X138122493Y-99226961D02*
X138074874Y-99036485D01*
X138074874Y-99036485D02*
X138074874Y-98703152D01*
X138074874Y-98703152D02*
X138122493Y-98512676D01*
X138122493Y-98512676D02*
X138217731Y-98417438D01*
X138217731Y-98417438D02*
X138312969Y-98369819D01*
X139646302Y-98369819D02*
X139170112Y-98369819D01*
X139170112Y-98369819D02*
X139122493Y-98846009D01*
X139122493Y-98846009D02*
X139170112Y-98798390D01*
X139170112Y-98798390D02*
X139265350Y-98750771D01*
X139265350Y-98750771D02*
X139503445Y-98750771D01*
X139503445Y-98750771D02*
X139598683Y-98798390D01*
X139598683Y-98798390D02*
X139646302Y-98846009D01*
X139646302Y-98846009D02*
X139693921Y-98941247D01*
X139693921Y-98941247D02*
X139693921Y-99179342D01*
X139693921Y-99179342D02*
X139646302Y-99274580D01*
X139646302Y-99274580D02*
X139598683Y-99322200D01*
X139598683Y-99322200D02*
X139503445Y-99369819D01*
X139503445Y-99369819D02*
X139265350Y-99369819D01*
X139265350Y-99369819D02*
X139170112Y-99322200D01*
X139170112Y-99322200D02*
X139122493Y-99274580D01*
X141408207Y-98417438D02*
X141312969Y-98369819D01*
X141312969Y-98369819D02*
X141170112Y-98369819D01*
X141170112Y-98369819D02*
X141027255Y-98417438D01*
X141027255Y-98417438D02*
X140932017Y-98512676D01*
X140932017Y-98512676D02*
X140884398Y-98607914D01*
X140884398Y-98607914D02*
X140836779Y-98798390D01*
X140836779Y-98798390D02*
X140836779Y-98941247D01*
X140836779Y-98941247D02*
X140884398Y-99131723D01*
X140884398Y-99131723D02*
X140932017Y-99226961D01*
X140932017Y-99226961D02*
X141027255Y-99322200D01*
X141027255Y-99322200D02*
X141170112Y-99369819D01*
X141170112Y-99369819D02*
X141265350Y-99369819D01*
X141265350Y-99369819D02*
X141408207Y-99322200D01*
X141408207Y-99322200D02*
X141455826Y-99274580D01*
X141455826Y-99274580D02*
X141455826Y-98941247D01*
X141455826Y-98941247D02*
X141265350Y-98941247D01*
X141884398Y-99369819D02*
X141884398Y-98369819D01*
X141884398Y-98369819D02*
X142265350Y-98369819D01*
X142265350Y-98369819D02*
X142360588Y-98417438D01*
X142360588Y-98417438D02*
X142408207Y-98465057D01*
X142408207Y-98465057D02*
X142455826Y-98560295D01*
X142455826Y-98560295D02*
X142455826Y-98703152D01*
X142455826Y-98703152D02*
X142408207Y-98798390D01*
X142408207Y-98798390D02*
X142360588Y-98846009D01*
X142360588Y-98846009D02*
X142265350Y-98893628D01*
X142265350Y-98893628D02*
X141884398Y-98893628D01*
X142884398Y-99369819D02*
X142884398Y-98369819D01*
X143551064Y-98369819D02*
X143741540Y-98369819D01*
X143741540Y-98369819D02*
X143836778Y-98417438D01*
X143836778Y-98417438D02*
X143932016Y-98512676D01*
X143932016Y-98512676D02*
X143979635Y-98703152D01*
X143979635Y-98703152D02*
X143979635Y-99036485D01*
X143979635Y-99036485D02*
X143932016Y-99226961D01*
X143932016Y-99226961D02*
X143836778Y-99322200D01*
X143836778Y-99322200D02*
X143741540Y-99369819D01*
X143741540Y-99369819D02*
X143551064Y-99369819D01*
X143551064Y-99369819D02*
X143455826Y-99322200D01*
X143455826Y-99322200D02*
X143360588Y-99226961D01*
X143360588Y-99226961D02*
X143312969Y-99036485D01*
X143312969Y-99036485D02*
X143312969Y-98703152D01*
X143312969Y-98703152D02*
X143360588Y-98512676D01*
X143360588Y-98512676D02*
X143455826Y-98417438D01*
X143455826Y-98417438D02*
X143551064Y-98369819D01*
X144932016Y-99369819D02*
X144360588Y-99369819D01*
X144646302Y-99369819D02*
X144646302Y-98369819D01*
X144646302Y-98369819D02*
X144551064Y-98512676D01*
X144551064Y-98512676D02*
X144455826Y-98607914D01*
X144455826Y-98607914D02*
X144360588Y-98655533D01*
X145884397Y-99369819D02*
X145312969Y-99369819D01*
X145598683Y-99369819D02*
X145598683Y-98369819D01*
X145598683Y-98369819D02*
X145503445Y-98512676D01*
X145503445Y-98512676D02*
X145408207Y-98607914D01*
X145408207Y-98607914D02*
X145312969Y-98655533D01*
X147074874Y-98988866D02*
X147836779Y-98988866D01*
X147455826Y-99369819D02*
X147455826Y-98607914D01*
X148789159Y-98369819D02*
X148312969Y-98369819D01*
X148312969Y-98369819D02*
X148265350Y-98846009D01*
X148265350Y-98846009D02*
X148312969Y-98798390D01*
X148312969Y-98798390D02*
X148408207Y-98750771D01*
X148408207Y-98750771D02*
X148646302Y-98750771D01*
X148646302Y-98750771D02*
X148741540Y-98798390D01*
X148741540Y-98798390D02*
X148789159Y-98846009D01*
X148789159Y-98846009D02*
X148836778Y-98941247D01*
X148836778Y-98941247D02*
X148836778Y-99179342D01*
X148836778Y-99179342D02*
X148789159Y-99274580D01*
X148789159Y-99274580D02*
X148741540Y-99322200D01*
X148741540Y-99322200D02*
X148646302Y-99369819D01*
X148646302Y-99369819D02*
X148408207Y-99369819D01*
X148408207Y-99369819D02*
X148312969Y-99322200D01*
X148312969Y-99322200D02*
X148265350Y-99274580D01*
X149122493Y-98369819D02*
X149455826Y-99369819D01*
X149455826Y-99369819D02*
X149789159Y-98369819D01*
D12*
X146101657Y-83176692D02*
X149101657Y-81176692D01*
X146101657Y-81176692D02*
X149101657Y-83176692D01*
X146101657Y-79890978D02*
X146673085Y-80176692D01*
X148458800Y-69033835D02*
X148601657Y-68605264D01*
X148601657Y-68605264D02*
X148601657Y-67890978D01*
X148601657Y-67890978D02*
X148458800Y-67605264D01*
X148458800Y-67605264D02*
X148315942Y-67462406D01*
X148315942Y-67462406D02*
X148030228Y-67319549D01*
X148030228Y-67319549D02*
X147744514Y-67319549D01*
X147744514Y-67319549D02*
X147458800Y-67462406D01*
X147458800Y-67462406D02*
X147315942Y-67605264D01*
X147315942Y-67605264D02*
X147173085Y-67890978D01*
X147173085Y-67890978D02*
X147030228Y-68462406D01*
X147030228Y-68462406D02*
X146887371Y-68748121D01*
X146887371Y-68748121D02*
X146744514Y-68890978D01*
X146744514Y-68890978D02*
X146458800Y-69033835D01*
X146458800Y-69033835D02*
X146173085Y-69033835D01*
X146173085Y-69033835D02*
X145887371Y-68890978D01*
X145887371Y-68890978D02*
X145744514Y-68748121D01*
X145744514Y-68748121D02*
X145601657Y-68462406D01*
X145601657Y-68462406D02*
X145601657Y-67748121D01*
X145601657Y-67748121D02*
X145744514Y-67319549D01*
X145601657Y-66319549D02*
X148601657Y-65605263D01*
X148601657Y-65605263D02*
X146458800Y-65033835D01*
X146458800Y-65033835D02*
X148601657Y-64462406D01*
X148601657Y-64462406D02*
X145601657Y-63748121D01*
D11*
X110860588Y-98417438D02*
X110765350Y-98369819D01*
X110765350Y-98369819D02*
X110622493Y-98369819D01*
X110622493Y-98369819D02*
X110479636Y-98417438D01*
X110479636Y-98417438D02*
X110384398Y-98512676D01*
X110384398Y-98512676D02*
X110336779Y-98607914D01*
X110336779Y-98607914D02*
X110289160Y-98798390D01*
X110289160Y-98798390D02*
X110289160Y-98941247D01*
X110289160Y-98941247D02*
X110336779Y-99131723D01*
X110336779Y-99131723D02*
X110384398Y-99226961D01*
X110384398Y-99226961D02*
X110479636Y-99322200D01*
X110479636Y-99322200D02*
X110622493Y-99369819D01*
X110622493Y-99369819D02*
X110717731Y-99369819D01*
X110717731Y-99369819D02*
X110860588Y-99322200D01*
X110860588Y-99322200D02*
X110908207Y-99274580D01*
X110908207Y-99274580D02*
X110908207Y-98941247D01*
X110908207Y-98941247D02*
X110717731Y-98941247D01*
X111336779Y-99369819D02*
X111336779Y-98369819D01*
X111336779Y-98369819D02*
X111908207Y-99369819D01*
X111908207Y-99369819D02*
X111908207Y-98369819D01*
X112384398Y-99369819D02*
X112384398Y-98369819D01*
X112384398Y-98369819D02*
X112622493Y-98369819D01*
X112622493Y-98369819D02*
X112765350Y-98417438D01*
X112765350Y-98417438D02*
X112860588Y-98512676D01*
X112860588Y-98512676D02*
X112908207Y-98607914D01*
X112908207Y-98607914D02*
X112955826Y-98798390D01*
X112955826Y-98798390D02*
X112955826Y-98941247D01*
X112955826Y-98941247D02*
X112908207Y-99131723D01*
X112908207Y-99131723D02*
X112860588Y-99226961D01*
X112860588Y-99226961D02*
X112765350Y-99322200D01*
X112765350Y-99322200D02*
X112622493Y-99369819D01*
X112622493Y-99369819D02*
X112384398Y-99369819D01*
X114670112Y-98417438D02*
X114574874Y-98369819D01*
X114574874Y-98369819D02*
X114432017Y-98369819D01*
X114432017Y-98369819D02*
X114289160Y-98417438D01*
X114289160Y-98417438D02*
X114193922Y-98512676D01*
X114193922Y-98512676D02*
X114146303Y-98607914D01*
X114146303Y-98607914D02*
X114098684Y-98798390D01*
X114098684Y-98798390D02*
X114098684Y-98941247D01*
X114098684Y-98941247D02*
X114146303Y-99131723D01*
X114146303Y-99131723D02*
X114193922Y-99226961D01*
X114193922Y-99226961D02*
X114289160Y-99322200D01*
X114289160Y-99322200D02*
X114432017Y-99369819D01*
X114432017Y-99369819D02*
X114527255Y-99369819D01*
X114527255Y-99369819D02*
X114670112Y-99322200D01*
X114670112Y-99322200D02*
X114717731Y-99274580D01*
X114717731Y-99274580D02*
X114717731Y-98941247D01*
X114717731Y-98941247D02*
X114527255Y-98941247D01*
X115146303Y-99369819D02*
X115146303Y-98369819D01*
X115146303Y-98369819D02*
X115527255Y-98369819D01*
X115527255Y-98369819D02*
X115622493Y-98417438D01*
X115622493Y-98417438D02*
X115670112Y-98465057D01*
X115670112Y-98465057D02*
X115717731Y-98560295D01*
X115717731Y-98560295D02*
X115717731Y-98703152D01*
X115717731Y-98703152D02*
X115670112Y-98798390D01*
X115670112Y-98798390D02*
X115622493Y-98846009D01*
X115622493Y-98846009D02*
X115527255Y-98893628D01*
X115527255Y-98893628D02*
X115146303Y-98893628D01*
X116146303Y-99369819D02*
X116146303Y-98369819D01*
X116812969Y-98369819D02*
X117003445Y-98369819D01*
X117003445Y-98369819D02*
X117098683Y-98417438D01*
X117098683Y-98417438D02*
X117193921Y-98512676D01*
X117193921Y-98512676D02*
X117241540Y-98703152D01*
X117241540Y-98703152D02*
X117241540Y-99036485D01*
X117241540Y-99036485D02*
X117193921Y-99226961D01*
X117193921Y-99226961D02*
X117098683Y-99322200D01*
X117098683Y-99322200D02*
X117003445Y-99369819D01*
X117003445Y-99369819D02*
X116812969Y-99369819D01*
X116812969Y-99369819D02*
X116717731Y-99322200D01*
X116717731Y-99322200D02*
X116622493Y-99226961D01*
X116622493Y-99226961D02*
X116574874Y-99036485D01*
X116574874Y-99036485D02*
X116574874Y-98703152D01*
X116574874Y-98703152D02*
X116622493Y-98512676D01*
X116622493Y-98512676D02*
X116717731Y-98417438D01*
X116717731Y-98417438D02*
X116812969Y-98369819D01*
X117717731Y-99369819D02*
X117908207Y-99369819D01*
X117908207Y-99369819D02*
X118003445Y-99322200D01*
X118003445Y-99322200D02*
X118051064Y-99274580D01*
X118051064Y-99274580D02*
X118146302Y-99131723D01*
X118146302Y-99131723D02*
X118193921Y-98941247D01*
X118193921Y-98941247D02*
X118193921Y-98560295D01*
X118193921Y-98560295D02*
X118146302Y-98465057D01*
X118146302Y-98465057D02*
X118098683Y-98417438D01*
X118098683Y-98417438D02*
X118003445Y-98369819D01*
X118003445Y-98369819D02*
X117812969Y-98369819D01*
X117812969Y-98369819D02*
X117717731Y-98417438D01*
X117717731Y-98417438D02*
X117670112Y-98465057D01*
X117670112Y-98465057D02*
X117622493Y-98560295D01*
X117622493Y-98560295D02*
X117622493Y-98798390D01*
X117622493Y-98798390D02*
X117670112Y-98893628D01*
X117670112Y-98893628D02*
X117717731Y-98941247D01*
X117717731Y-98941247D02*
X117812969Y-98988866D01*
X117812969Y-98988866D02*
X118003445Y-98988866D01*
X118003445Y-98988866D02*
X118098683Y-98941247D01*
X118098683Y-98941247D02*
X118146302Y-98893628D01*
X118146302Y-98893628D02*
X118193921Y-98798390D01*
X119908207Y-98417438D02*
X119812969Y-98369819D01*
X119812969Y-98369819D02*
X119670112Y-98369819D01*
X119670112Y-98369819D02*
X119527255Y-98417438D01*
X119527255Y-98417438D02*
X119432017Y-98512676D01*
X119432017Y-98512676D02*
X119384398Y-98607914D01*
X119384398Y-98607914D02*
X119336779Y-98798390D01*
X119336779Y-98798390D02*
X119336779Y-98941247D01*
X119336779Y-98941247D02*
X119384398Y-99131723D01*
X119384398Y-99131723D02*
X119432017Y-99226961D01*
X119432017Y-99226961D02*
X119527255Y-99322200D01*
X119527255Y-99322200D02*
X119670112Y-99369819D01*
X119670112Y-99369819D02*
X119765350Y-99369819D01*
X119765350Y-99369819D02*
X119908207Y-99322200D01*
X119908207Y-99322200D02*
X119955826Y-99274580D01*
X119955826Y-99274580D02*
X119955826Y-98941247D01*
X119955826Y-98941247D02*
X119765350Y-98941247D01*
X120384398Y-99369819D02*
X120384398Y-98369819D01*
X120384398Y-98369819D02*
X120765350Y-98369819D01*
X120765350Y-98369819D02*
X120860588Y-98417438D01*
X120860588Y-98417438D02*
X120908207Y-98465057D01*
X120908207Y-98465057D02*
X120955826Y-98560295D01*
X120955826Y-98560295D02*
X120955826Y-98703152D01*
X120955826Y-98703152D02*
X120908207Y-98798390D01*
X120908207Y-98798390D02*
X120860588Y-98846009D01*
X120860588Y-98846009D02*
X120765350Y-98893628D01*
X120765350Y-98893628D02*
X120384398Y-98893628D01*
X121384398Y-99369819D02*
X121384398Y-98369819D01*
X122051064Y-98369819D02*
X122241540Y-98369819D01*
X122241540Y-98369819D02*
X122336778Y-98417438D01*
X122336778Y-98417438D02*
X122432016Y-98512676D01*
X122432016Y-98512676D02*
X122479635Y-98703152D01*
X122479635Y-98703152D02*
X122479635Y-99036485D01*
X122479635Y-99036485D02*
X122432016Y-99226961D01*
X122432016Y-99226961D02*
X122336778Y-99322200D01*
X122336778Y-99322200D02*
X122241540Y-99369819D01*
X122241540Y-99369819D02*
X122051064Y-99369819D01*
X122051064Y-99369819D02*
X121955826Y-99322200D01*
X121955826Y-99322200D02*
X121860588Y-99226961D01*
X121860588Y-99226961D02*
X121812969Y-99036485D01*
X121812969Y-99036485D02*
X121812969Y-98703152D01*
X121812969Y-98703152D02*
X121860588Y-98512676D01*
X121860588Y-98512676D02*
X121955826Y-98417438D01*
X121955826Y-98417438D02*
X122051064Y-98369819D01*
X123432016Y-99369819D02*
X122860588Y-99369819D01*
X123146302Y-99369819D02*
X123146302Y-98369819D01*
X123146302Y-98369819D02*
X123051064Y-98512676D01*
X123051064Y-98512676D02*
X122955826Y-98607914D01*
X122955826Y-98607914D02*
X122860588Y-98655533D01*
X124051064Y-98369819D02*
X124146302Y-98369819D01*
X124146302Y-98369819D02*
X124241540Y-98417438D01*
X124241540Y-98417438D02*
X124289159Y-98465057D01*
X124289159Y-98465057D02*
X124336778Y-98560295D01*
X124336778Y-98560295D02*
X124384397Y-98750771D01*
X124384397Y-98750771D02*
X124384397Y-98988866D01*
X124384397Y-98988866D02*
X124336778Y-99179342D01*
X124336778Y-99179342D02*
X124289159Y-99274580D01*
X124289159Y-99274580D02*
X124241540Y-99322200D01*
X124241540Y-99322200D02*
X124146302Y-99369819D01*
X124146302Y-99369819D02*
X124051064Y-99369819D01*
X124051064Y-99369819D02*
X123955826Y-99322200D01*
X123955826Y-99322200D02*
X123908207Y-99274580D01*
X123908207Y-99274580D02*
X123860588Y-99179342D01*
X123860588Y-99179342D02*
X123812969Y-98988866D01*
X123812969Y-98988866D02*
X123812969Y-98750771D01*
X123812969Y-98750771D02*
X123860588Y-98560295D01*
X123860588Y-98560295D02*
X123908207Y-98465057D01*
X123908207Y-98465057D02*
X123955826Y-98417438D01*
X123955826Y-98417438D02*
X124051064Y-98369819D01*
X125574874Y-98988866D02*
X126336779Y-98988866D01*
X125955826Y-99369819D02*
X125955826Y-98607914D01*
X127289159Y-98369819D02*
X126812969Y-98369819D01*
X126812969Y-98369819D02*
X126765350Y-98846009D01*
X126765350Y-98846009D02*
X126812969Y-98798390D01*
X126812969Y-98798390D02*
X126908207Y-98750771D01*
X126908207Y-98750771D02*
X127146302Y-98750771D01*
X127146302Y-98750771D02*
X127241540Y-98798390D01*
X127241540Y-98798390D02*
X127289159Y-98846009D01*
X127289159Y-98846009D02*
X127336778Y-98941247D01*
X127336778Y-98941247D02*
X127336778Y-99179342D01*
X127336778Y-99179342D02*
X127289159Y-99274580D01*
X127289159Y-99274580D02*
X127241540Y-99322200D01*
X127241540Y-99322200D02*
X127146302Y-99369819D01*
X127146302Y-99369819D02*
X126908207Y-99369819D01*
X126908207Y-99369819D02*
X126812969Y-99322200D01*
X126812969Y-99322200D02*
X126765350Y-99274580D01*
X127622493Y-98369819D02*
X127955826Y-99369819D01*
X127955826Y-99369819D02*
X128289159Y-98369819D01*
X131166666Y-86454819D02*
X131166666Y-87169104D01*
X131166666Y-87169104D02*
X131119047Y-87311961D01*
X131119047Y-87311961D02*
X131023809Y-87407200D01*
X131023809Y-87407200D02*
X130880952Y-87454819D01*
X130880952Y-87454819D02*
X130785714Y-87454819D01*
X132071428Y-86454819D02*
X131880952Y-86454819D01*
X131880952Y-86454819D02*
X131785714Y-86502438D01*
X131785714Y-86502438D02*
X131738095Y-86550057D01*
X131738095Y-86550057D02*
X131642857Y-86692914D01*
X131642857Y-86692914D02*
X131595238Y-86883390D01*
X131595238Y-86883390D02*
X131595238Y-87264342D01*
X131595238Y-87264342D02*
X131642857Y-87359580D01*
X131642857Y-87359580D02*
X131690476Y-87407200D01*
X131690476Y-87407200D02*
X131785714Y-87454819D01*
X131785714Y-87454819D02*
X131976190Y-87454819D01*
X131976190Y-87454819D02*
X132071428Y-87407200D01*
X132071428Y-87407200D02*
X132119047Y-87359580D01*
X132119047Y-87359580D02*
X132166666Y-87264342D01*
X132166666Y-87264342D02*
X132166666Y-87026247D01*
X132166666Y-87026247D02*
X132119047Y-86931009D01*
X132119047Y-86931009D02*
X132071428Y-86883390D01*
X132071428Y-86883390D02*
X131976190Y-86835771D01*
X131976190Y-86835771D02*
X131785714Y-86835771D01*
X131785714Y-86835771D02*
X131690476Y-86883390D01*
X131690476Y-86883390D02*
X131642857Y-86931009D01*
X131642857Y-86931009D02*
X131595238Y-87026247D01*
X117666666Y-63954819D02*
X117666666Y-64669104D01*
X117666666Y-64669104D02*
X117619047Y-64811961D01*
X117619047Y-64811961D02*
X117523809Y-64907200D01*
X117523809Y-64907200D02*
X117380952Y-64954819D01*
X117380952Y-64954819D02*
X117285714Y-64954819D01*
X118095238Y-64050057D02*
X118142857Y-64002438D01*
X118142857Y-64002438D02*
X118238095Y-63954819D01*
X118238095Y-63954819D02*
X118476190Y-63954819D01*
X118476190Y-63954819D02*
X118571428Y-64002438D01*
X118571428Y-64002438D02*
X118619047Y-64050057D01*
X118619047Y-64050057D02*
X118666666Y-64145295D01*
X118666666Y-64145295D02*
X118666666Y-64240533D01*
X118666666Y-64240533D02*
X118619047Y-64383390D01*
X118619047Y-64383390D02*
X118047619Y-64954819D01*
X118047619Y-64954819D02*
X118666666Y-64954819D01*
X115333333Y-61454819D02*
X115000000Y-60978628D01*
X114761905Y-61454819D02*
X114761905Y-60454819D01*
X114761905Y-60454819D02*
X115142857Y-60454819D01*
X115142857Y-60454819D02*
X115238095Y-60502438D01*
X115238095Y-60502438D02*
X115285714Y-60550057D01*
X115285714Y-60550057D02*
X115333333Y-60645295D01*
X115333333Y-60645295D02*
X115333333Y-60788152D01*
X115333333Y-60788152D02*
X115285714Y-60883390D01*
X115285714Y-60883390D02*
X115238095Y-60931009D01*
X115238095Y-60931009D02*
X115142857Y-60978628D01*
X115142857Y-60978628D02*
X114761905Y-60978628D01*
X116285714Y-61454819D02*
X115714286Y-61454819D01*
X116000000Y-61454819D02*
X116000000Y-60454819D01*
X116000000Y-60454819D02*
X115904762Y-60597676D01*
X115904762Y-60597676D02*
X115809524Y-60692914D01*
X115809524Y-60692914D02*
X115714286Y-60740533D01*
X131454819Y-57166666D02*
X130978628Y-57499999D01*
X131454819Y-57738094D02*
X130454819Y-57738094D01*
X130454819Y-57738094D02*
X130454819Y-57357142D01*
X130454819Y-57357142D02*
X130502438Y-57261904D01*
X130502438Y-57261904D02*
X130550057Y-57214285D01*
X130550057Y-57214285D02*
X130645295Y-57166666D01*
X130645295Y-57166666D02*
X130788152Y-57166666D01*
X130788152Y-57166666D02*
X130883390Y-57214285D01*
X130883390Y-57214285D02*
X130931009Y-57261904D01*
X130931009Y-57261904D02*
X130978628Y-57357142D01*
X130978628Y-57357142D02*
X130978628Y-57738094D01*
X130454819Y-56261904D02*
X130454819Y-56738094D01*
X130454819Y-56738094D02*
X130931009Y-56785713D01*
X130931009Y-56785713D02*
X130883390Y-56738094D01*
X130883390Y-56738094D02*
X130835771Y-56642856D01*
X130835771Y-56642856D02*
X130835771Y-56404761D01*
X130835771Y-56404761D02*
X130883390Y-56309523D01*
X130883390Y-56309523D02*
X130931009Y-56261904D01*
X130931009Y-56261904D02*
X131026247Y-56214285D01*
X131026247Y-56214285D02*
X131264342Y-56214285D01*
X131264342Y-56214285D02*
X131359580Y-56261904D01*
X131359580Y-56261904D02*
X131407200Y-56309523D01*
X131407200Y-56309523D02*
X131454819Y-56404761D01*
X131454819Y-56404761D02*
X131454819Y-56642856D01*
X131454819Y-56642856D02*
X131407200Y-56738094D01*
X131407200Y-56738094D02*
X131359580Y-56785713D01*
X109666666Y-86454819D02*
X109666666Y-87169104D01*
X109666666Y-87169104D02*
X109619047Y-87311961D01*
X109619047Y-87311961D02*
X109523809Y-87407200D01*
X109523809Y-87407200D02*
X109380952Y-87454819D01*
X109380952Y-87454819D02*
X109285714Y-87454819D01*
X110619047Y-86454819D02*
X110142857Y-86454819D01*
X110142857Y-86454819D02*
X110095238Y-86931009D01*
X110095238Y-86931009D02*
X110142857Y-86883390D01*
X110142857Y-86883390D02*
X110238095Y-86835771D01*
X110238095Y-86835771D02*
X110476190Y-86835771D01*
X110476190Y-86835771D02*
X110571428Y-86883390D01*
X110571428Y-86883390D02*
X110619047Y-86931009D01*
X110619047Y-86931009D02*
X110666666Y-87026247D01*
X110666666Y-87026247D02*
X110666666Y-87264342D01*
X110666666Y-87264342D02*
X110619047Y-87359580D01*
X110619047Y-87359580D02*
X110571428Y-87407200D01*
X110571428Y-87407200D02*
X110476190Y-87454819D01*
X110476190Y-87454819D02*
X110238095Y-87454819D01*
X110238095Y-87454819D02*
X110142857Y-87407200D01*
X110142857Y-87407200D02*
X110095238Y-87359580D01*
X125454819Y-81666666D02*
X124978628Y-81999999D01*
X125454819Y-82238094D02*
X124454819Y-82238094D01*
X124454819Y-82238094D02*
X124454819Y-81857142D01*
X124454819Y-81857142D02*
X124502438Y-81761904D01*
X124502438Y-81761904D02*
X124550057Y-81714285D01*
X124550057Y-81714285D02*
X124645295Y-81666666D01*
X124645295Y-81666666D02*
X124788152Y-81666666D01*
X124788152Y-81666666D02*
X124883390Y-81714285D01*
X124883390Y-81714285D02*
X124931009Y-81761904D01*
X124931009Y-81761904D02*
X124978628Y-81857142D01*
X124978628Y-81857142D02*
X124978628Y-82238094D01*
X124883390Y-81095237D02*
X124835771Y-81190475D01*
X124835771Y-81190475D02*
X124788152Y-81238094D01*
X124788152Y-81238094D02*
X124692914Y-81285713D01*
X124692914Y-81285713D02*
X124645295Y-81285713D01*
X124645295Y-81285713D02*
X124550057Y-81238094D01*
X124550057Y-81238094D02*
X124502438Y-81190475D01*
X124502438Y-81190475D02*
X124454819Y-81095237D01*
X124454819Y-81095237D02*
X124454819Y-80904761D01*
X124454819Y-80904761D02*
X124502438Y-80809523D01*
X124502438Y-80809523D02*
X124550057Y-80761904D01*
X124550057Y-80761904D02*
X124645295Y-80714285D01*
X124645295Y-80714285D02*
X124692914Y-80714285D01*
X124692914Y-80714285D02*
X124788152Y-80761904D01*
X124788152Y-80761904D02*
X124835771Y-80809523D01*
X124835771Y-80809523D02*
X124883390Y-80904761D01*
X124883390Y-80904761D02*
X124883390Y-81095237D01*
X124883390Y-81095237D02*
X124931009Y-81190475D01*
X124931009Y-81190475D02*
X124978628Y-81238094D01*
X124978628Y-81238094D02*
X125073866Y-81285713D01*
X125073866Y-81285713D02*
X125264342Y-81285713D01*
X125264342Y-81285713D02*
X125359580Y-81238094D01*
X125359580Y-81238094D02*
X125407200Y-81190475D01*
X125407200Y-81190475D02*
X125454819Y-81095237D01*
X125454819Y-81095237D02*
X125454819Y-80904761D01*
X125454819Y-80904761D02*
X125407200Y-80809523D01*
X125407200Y-80809523D02*
X125359580Y-80761904D01*
X125359580Y-80761904D02*
X125264342Y-80714285D01*
X125264342Y-80714285D02*
X125073866Y-80714285D01*
X125073866Y-80714285D02*
X124978628Y-80761904D01*
X124978628Y-80761904D02*
X124931009Y-80809523D01*
X124931009Y-80809523D02*
X124883390Y-80904761D01*
X131454819Y-82642857D02*
X130978628Y-82976190D01*
X131454819Y-83214285D02*
X130454819Y-83214285D01*
X130454819Y-83214285D02*
X130454819Y-82833333D01*
X130454819Y-82833333D02*
X130502438Y-82738095D01*
X130502438Y-82738095D02*
X130550057Y-82690476D01*
X130550057Y-82690476D02*
X130645295Y-82642857D01*
X130645295Y-82642857D02*
X130788152Y-82642857D01*
X130788152Y-82642857D02*
X130883390Y-82690476D01*
X130883390Y-82690476D02*
X130931009Y-82738095D01*
X130931009Y-82738095D02*
X130978628Y-82833333D01*
X130978628Y-82833333D02*
X130978628Y-83214285D01*
X131454819Y-81690476D02*
X131454819Y-82261904D01*
X131454819Y-81976190D02*
X130454819Y-81976190D01*
X130454819Y-81976190D02*
X130597676Y-82071428D01*
X130597676Y-82071428D02*
X130692914Y-82166666D01*
X130692914Y-82166666D02*
X130740533Y-82261904D01*
X130454819Y-81071428D02*
X130454819Y-80976190D01*
X130454819Y-80976190D02*
X130502438Y-80880952D01*
X130502438Y-80880952D02*
X130550057Y-80833333D01*
X130550057Y-80833333D02*
X130645295Y-80785714D01*
X130645295Y-80785714D02*
X130835771Y-80738095D01*
X130835771Y-80738095D02*
X131073866Y-80738095D01*
X131073866Y-80738095D02*
X131264342Y-80785714D01*
X131264342Y-80785714D02*
X131359580Y-80833333D01*
X131359580Y-80833333D02*
X131407200Y-80880952D01*
X131407200Y-80880952D02*
X131454819Y-80976190D01*
X131454819Y-80976190D02*
X131454819Y-81071428D01*
X131454819Y-81071428D02*
X131407200Y-81166666D01*
X131407200Y-81166666D02*
X131359580Y-81214285D01*
X131359580Y-81214285D02*
X131264342Y-81261904D01*
X131264342Y-81261904D02*
X131073866Y-81309523D01*
X131073866Y-81309523D02*
X130835771Y-81309523D01*
X130835771Y-81309523D02*
X130645295Y-81261904D01*
X130645295Y-81261904D02*
X130550057Y-81214285D01*
X130550057Y-81214285D02*
X130502438Y-81166666D01*
X130502438Y-81166666D02*
X130454819Y-81071428D01*
X125454819Y-57166666D02*
X124978628Y-57499999D01*
X125454819Y-57738094D02*
X124454819Y-57738094D01*
X124454819Y-57738094D02*
X124454819Y-57357142D01*
X124454819Y-57357142D02*
X124502438Y-57261904D01*
X124502438Y-57261904D02*
X124550057Y-57214285D01*
X124550057Y-57214285D02*
X124645295Y-57166666D01*
X124645295Y-57166666D02*
X124788152Y-57166666D01*
X124788152Y-57166666D02*
X124883390Y-57214285D01*
X124883390Y-57214285D02*
X124931009Y-57261904D01*
X124931009Y-57261904D02*
X124978628Y-57357142D01*
X124978628Y-57357142D02*
X124978628Y-57738094D01*
X124454819Y-56833332D02*
X124454819Y-56214285D01*
X124454819Y-56214285D02*
X124835771Y-56547618D01*
X124835771Y-56547618D02*
X124835771Y-56404761D01*
X124835771Y-56404761D02*
X124883390Y-56309523D01*
X124883390Y-56309523D02*
X124931009Y-56261904D01*
X124931009Y-56261904D02*
X125026247Y-56214285D01*
X125026247Y-56214285D02*
X125264342Y-56214285D01*
X125264342Y-56214285D02*
X125359580Y-56261904D01*
X125359580Y-56261904D02*
X125407200Y-56309523D01*
X125407200Y-56309523D02*
X125454819Y-56404761D01*
X125454819Y-56404761D02*
X125454819Y-56690475D01*
X125454819Y-56690475D02*
X125407200Y-56785713D01*
X125407200Y-56785713D02*
X125359580Y-56833332D01*
X128454819Y-81666666D02*
X127978628Y-81999999D01*
X128454819Y-82238094D02*
X127454819Y-82238094D01*
X127454819Y-82238094D02*
X127454819Y-81857142D01*
X127454819Y-81857142D02*
X127502438Y-81761904D01*
X127502438Y-81761904D02*
X127550057Y-81714285D01*
X127550057Y-81714285D02*
X127645295Y-81666666D01*
X127645295Y-81666666D02*
X127788152Y-81666666D01*
X127788152Y-81666666D02*
X127883390Y-81714285D01*
X127883390Y-81714285D02*
X127931009Y-81761904D01*
X127931009Y-81761904D02*
X127978628Y-81857142D01*
X127978628Y-81857142D02*
X127978628Y-82238094D01*
X127454819Y-81333332D02*
X127454819Y-80666666D01*
X127454819Y-80666666D02*
X128454819Y-81095237D01*
X150666666Y-51954819D02*
X150666666Y-52669104D01*
X150666666Y-52669104D02*
X150619047Y-52811961D01*
X150619047Y-52811961D02*
X150523809Y-52907200D01*
X150523809Y-52907200D02*
X150380952Y-52954819D01*
X150380952Y-52954819D02*
X150285714Y-52954819D01*
X151047619Y-51954819D02*
X151666666Y-51954819D01*
X151666666Y-51954819D02*
X151333333Y-52335771D01*
X151333333Y-52335771D02*
X151476190Y-52335771D01*
X151476190Y-52335771D02*
X151571428Y-52383390D01*
X151571428Y-52383390D02*
X151619047Y-52431009D01*
X151619047Y-52431009D02*
X151666666Y-52526247D01*
X151666666Y-52526247D02*
X151666666Y-52764342D01*
X151666666Y-52764342D02*
X151619047Y-52859580D01*
X151619047Y-52859580D02*
X151571428Y-52907200D01*
X151571428Y-52907200D02*
X151476190Y-52954819D01*
X151476190Y-52954819D02*
X151190476Y-52954819D01*
X151190476Y-52954819D02*
X151095238Y-52907200D01*
X151095238Y-52907200D02*
X151047619Y-52859580D01*
X134454819Y-81666666D02*
X133978628Y-81999999D01*
X134454819Y-82238094D02*
X133454819Y-82238094D01*
X133454819Y-82238094D02*
X133454819Y-81857142D01*
X133454819Y-81857142D02*
X133502438Y-81761904D01*
X133502438Y-81761904D02*
X133550057Y-81714285D01*
X133550057Y-81714285D02*
X133645295Y-81666666D01*
X133645295Y-81666666D02*
X133788152Y-81666666D01*
X133788152Y-81666666D02*
X133883390Y-81714285D01*
X133883390Y-81714285D02*
X133931009Y-81761904D01*
X133931009Y-81761904D02*
X133978628Y-81857142D01*
X133978628Y-81857142D02*
X133978628Y-82238094D01*
X134454819Y-81190475D02*
X134454819Y-80999999D01*
X134454819Y-80999999D02*
X134407200Y-80904761D01*
X134407200Y-80904761D02*
X134359580Y-80857142D01*
X134359580Y-80857142D02*
X134216723Y-80761904D01*
X134216723Y-80761904D02*
X134026247Y-80714285D01*
X134026247Y-80714285D02*
X133645295Y-80714285D01*
X133645295Y-80714285D02*
X133550057Y-80761904D01*
X133550057Y-80761904D02*
X133502438Y-80809523D01*
X133502438Y-80809523D02*
X133454819Y-80904761D01*
X133454819Y-80904761D02*
X133454819Y-81095237D01*
X133454819Y-81095237D02*
X133502438Y-81190475D01*
X133502438Y-81190475D02*
X133550057Y-81238094D01*
X133550057Y-81238094D02*
X133645295Y-81285713D01*
X133645295Y-81285713D02*
X133883390Y-81285713D01*
X133883390Y-81285713D02*
X133978628Y-81238094D01*
X133978628Y-81238094D02*
X134026247Y-81190475D01*
X134026247Y-81190475D02*
X134073866Y-81095237D01*
X134073866Y-81095237D02*
X134073866Y-80904761D01*
X134073866Y-80904761D02*
X134026247Y-80809523D01*
X134026247Y-80809523D02*
X133978628Y-80761904D01*
X133978628Y-80761904D02*
X133883390Y-80714285D01*
X128454819Y-57166666D02*
X127978628Y-57499999D01*
X128454819Y-57738094D02*
X127454819Y-57738094D01*
X127454819Y-57738094D02*
X127454819Y-57357142D01*
X127454819Y-57357142D02*
X127502438Y-57261904D01*
X127502438Y-57261904D02*
X127550057Y-57214285D01*
X127550057Y-57214285D02*
X127645295Y-57166666D01*
X127645295Y-57166666D02*
X127788152Y-57166666D01*
X127788152Y-57166666D02*
X127883390Y-57214285D01*
X127883390Y-57214285D02*
X127931009Y-57261904D01*
X127931009Y-57261904D02*
X127978628Y-57357142D01*
X127978628Y-57357142D02*
X127978628Y-57738094D01*
X127788152Y-56309523D02*
X128454819Y-56309523D01*
X127407200Y-56547618D02*
X128121485Y-56785713D01*
X128121485Y-56785713D02*
X128121485Y-56166666D01*
X150666666Y-73454819D02*
X150666666Y-74169104D01*
X150666666Y-74169104D02*
X150619047Y-74311961D01*
X150619047Y-74311961D02*
X150523809Y-74407200D01*
X150523809Y-74407200D02*
X150380952Y-74454819D01*
X150380952Y-74454819D02*
X150285714Y-74454819D01*
X151571428Y-73788152D02*
X151571428Y-74454819D01*
X151333333Y-73407200D02*
X151095238Y-74121485D01*
X151095238Y-74121485D02*
X151714285Y-74121485D01*
X115333333Y-53084819D02*
X115000000Y-52608628D01*
X114761905Y-53084819D02*
X114761905Y-52084819D01*
X114761905Y-52084819D02*
X115142857Y-52084819D01*
X115142857Y-52084819D02*
X115238095Y-52132438D01*
X115238095Y-52132438D02*
X115285714Y-52180057D01*
X115285714Y-52180057D02*
X115333333Y-52275295D01*
X115333333Y-52275295D02*
X115333333Y-52418152D01*
X115333333Y-52418152D02*
X115285714Y-52513390D01*
X115285714Y-52513390D02*
X115238095Y-52561009D01*
X115238095Y-52561009D02*
X115142857Y-52608628D01*
X115142857Y-52608628D02*
X114761905Y-52608628D01*
X115714286Y-52180057D02*
X115761905Y-52132438D01*
X115761905Y-52132438D02*
X115857143Y-52084819D01*
X115857143Y-52084819D02*
X116095238Y-52084819D01*
X116095238Y-52084819D02*
X116190476Y-52132438D01*
X116190476Y-52132438D02*
X116238095Y-52180057D01*
X116238095Y-52180057D02*
X116285714Y-52275295D01*
X116285714Y-52275295D02*
X116285714Y-52370533D01*
X116285714Y-52370533D02*
X116238095Y-52513390D01*
X116238095Y-52513390D02*
X115666667Y-53084819D01*
X115666667Y-53084819D02*
X116285714Y-53084819D01*
X134454819Y-57166666D02*
X133978628Y-57499999D01*
X134454819Y-57738094D02*
X133454819Y-57738094D01*
X133454819Y-57738094D02*
X133454819Y-57357142D01*
X133454819Y-57357142D02*
X133502438Y-57261904D01*
X133502438Y-57261904D02*
X133550057Y-57214285D01*
X133550057Y-57214285D02*
X133645295Y-57166666D01*
X133645295Y-57166666D02*
X133788152Y-57166666D01*
X133788152Y-57166666D02*
X133883390Y-57214285D01*
X133883390Y-57214285D02*
X133931009Y-57261904D01*
X133931009Y-57261904D02*
X133978628Y-57357142D01*
X133978628Y-57357142D02*
X133978628Y-57738094D01*
X133454819Y-56309523D02*
X133454819Y-56499999D01*
X133454819Y-56499999D02*
X133502438Y-56595237D01*
X133502438Y-56595237D02*
X133550057Y-56642856D01*
X133550057Y-56642856D02*
X133692914Y-56738094D01*
X133692914Y-56738094D02*
X133883390Y-56785713D01*
X133883390Y-56785713D02*
X134264342Y-56785713D01*
X134264342Y-56785713D02*
X134359580Y-56738094D01*
X134359580Y-56738094D02*
X134407200Y-56690475D01*
X134407200Y-56690475D02*
X134454819Y-56595237D01*
X134454819Y-56595237D02*
X134454819Y-56404761D01*
X134454819Y-56404761D02*
X134407200Y-56309523D01*
X134407200Y-56309523D02*
X134359580Y-56261904D01*
X134359580Y-56261904D02*
X134264342Y-56214285D01*
X134264342Y-56214285D02*
X134026247Y-56214285D01*
X134026247Y-56214285D02*
X133931009Y-56261904D01*
X133931009Y-56261904D02*
X133883390Y-56309523D01*
X133883390Y-56309523D02*
X133835771Y-56404761D01*
X133835771Y-56404761D02*
X133835771Y-56595237D01*
X133835771Y-56595237D02*
X133883390Y-56690475D01*
X133883390Y-56690475D02*
X133931009Y-56738094D01*
X133931009Y-56738094D02*
X134026247Y-56785713D01*
D13*
X130880000Y-88380000D02*
X151120000Y-88380000D01*
X130880000Y-96000000D02*
X151120000Y-96000000D01*
X130880000Y-97100000D02*
X151120000Y-97100000D01*
X130880000Y-97620000D02*
X130880000Y-88380000D01*
X133200000Y-97620000D02*
X130880000Y-97620000D01*
X151120000Y-88380000D02*
X151120000Y-97620000D01*
X151120000Y-97620000D02*
X133800000Y-97620000D01*
X133940000Y-98230000D02*
X133060000Y-98230000D01*
X133500000Y-97620000D01*
X133940000Y-98230000D01*
G36*
X133940000Y-98230000D02*
G01*
X133060000Y-98230000D01*
X133500000Y-97620000D01*
X133940000Y-98230000D01*
G37*
X107012500Y-62380000D02*
X116252500Y-62380000D01*
X107012500Y-64700000D02*
X107012500Y-62380000D01*
X107012500Y-82620000D02*
X107012500Y-65300000D01*
X107532500Y-62380000D02*
X107532500Y-82620000D01*
X108632500Y-62380000D02*
X108632500Y-82620000D01*
X116252500Y-62380000D02*
X116252500Y-82620000D01*
X116252500Y-82620000D02*
X107012500Y-82620000D01*
X107012500Y-65000000D02*
X106402500Y-65440000D01*
X106402500Y-64560000D01*
X107012500Y-65000000D01*
G36*
X107012500Y-65000000D02*
G01*
X106402500Y-65440000D01*
X106402500Y-64560000D01*
X107012500Y-65000000D01*
G37*
X108230000Y-57130000D02*
X114770000Y-57130000D01*
X108230000Y-57460000D02*
X108230000Y-57130000D01*
X108230000Y-59540000D02*
X108230000Y-59870000D01*
X108230000Y-59870000D02*
X114770000Y-59870000D01*
X114770000Y-57130000D02*
X114770000Y-57460000D01*
X114770000Y-59870000D02*
X114770000Y-59540000D01*
X129630000Y-59730000D02*
X129630000Y-66270000D01*
X129630000Y-66270000D02*
X129960000Y-66270000D01*
X129960000Y-59730000D02*
X129630000Y-59730000D01*
X132040000Y-59730000D02*
X132370000Y-59730000D01*
X132370000Y-59730000D02*
X132370000Y-66270000D01*
X132370000Y-66270000D02*
X132040000Y-66270000D01*
X109380000Y-88380000D02*
X129620000Y-88380000D01*
X109380000Y-96000000D02*
X129620000Y-96000000D01*
X109380000Y-97100000D02*
X129620000Y-97100000D01*
X109380000Y-97620000D02*
X109380000Y-88380000D01*
X111700000Y-97620000D02*
X109380000Y-97620000D01*
X129620000Y-88380000D02*
X129620000Y-97620000D01*
X129620000Y-97620000D02*
X112300000Y-97620000D01*
X112440000Y-98230000D02*
X111560000Y-98230000D01*
X112000000Y-97620000D01*
X112440000Y-98230000D01*
G36*
X112440000Y-98230000D02*
G01*
X111560000Y-98230000D01*
X112000000Y-97620000D01*
X112440000Y-98230000D01*
G37*
X123630000Y-71920000D02*
X123630000Y-78460000D01*
X123630000Y-78460000D02*
X123960000Y-78460000D01*
X123960000Y-71920000D02*
X123630000Y-71920000D01*
X126040000Y-71920000D02*
X126370000Y-71920000D01*
X126370000Y-71920000D02*
X126370000Y-78460000D01*
X126370000Y-78460000D02*
X126040000Y-78460000D01*
X129630000Y-71920000D02*
X129630000Y-78460000D01*
X129630000Y-78460000D02*
X129960000Y-78460000D01*
X129960000Y-71920000D02*
X129630000Y-71920000D01*
X132040000Y-71920000D02*
X132370000Y-71920000D01*
X132370000Y-71920000D02*
X132370000Y-78460000D01*
X132370000Y-78460000D02*
X132040000Y-78460000D01*
X123630000Y-59730000D02*
X123630000Y-66270000D01*
X123630000Y-66270000D02*
X123960000Y-66270000D01*
X123960000Y-59730000D02*
X123630000Y-59730000D01*
X126040000Y-59730000D02*
X126370000Y-59730000D01*
X126370000Y-59730000D02*
X126370000Y-66270000D01*
X126370000Y-66270000D02*
X126040000Y-66270000D01*
X126630000Y-71920000D02*
X126630000Y-78460000D01*
X126630000Y-78460000D02*
X126960000Y-78460000D01*
X126960000Y-71920000D02*
X126630000Y-71920000D01*
X129040000Y-71920000D02*
X129370000Y-71920000D01*
X129370000Y-71920000D02*
X129370000Y-78460000D01*
X129370000Y-78460000D02*
X129040000Y-78460000D01*
X152380000Y-51380000D02*
X161620000Y-51380000D01*
X152380000Y-71620000D02*
X152380000Y-51380000D01*
X160000000Y-71620000D02*
X160000000Y-51380000D01*
X161100000Y-71620000D02*
X161100000Y-51380000D01*
X161620000Y-51380000D02*
X161620000Y-68700000D01*
X161620000Y-69300000D02*
X161620000Y-71620000D01*
X161620000Y-71620000D02*
X152380000Y-71620000D01*
X162230000Y-69440000D02*
X161620000Y-69000000D01*
X162230000Y-68560000D01*
X162230000Y-69440000D01*
G36*
X162230000Y-69440000D02*
G01*
X161620000Y-69000000D01*
X162230000Y-68560000D01*
X162230000Y-69440000D01*
G37*
X132630000Y-71920000D02*
X132630000Y-78460000D01*
X132630000Y-78460000D02*
X132960000Y-78460000D01*
X132960000Y-71920000D02*
X132630000Y-71920000D01*
X135040000Y-71920000D02*
X135370000Y-71920000D01*
X135370000Y-71920000D02*
X135370000Y-78460000D01*
X135370000Y-78460000D02*
X135040000Y-78460000D01*
X126630000Y-59730000D02*
X126630000Y-66270000D01*
X126630000Y-66270000D02*
X126960000Y-66270000D01*
X126960000Y-59730000D02*
X126630000Y-59730000D01*
X129040000Y-59730000D02*
X129370000Y-59730000D01*
X129370000Y-59730000D02*
X129370000Y-66270000D01*
X129370000Y-66270000D02*
X129040000Y-66270000D01*
X152380000Y-72880000D02*
X161620000Y-72880000D01*
X152380000Y-93120000D02*
X152380000Y-72880000D01*
X160000000Y-93120000D02*
X160000000Y-72880000D01*
X161100000Y-93120000D02*
X161100000Y-72880000D01*
X161620000Y-72880000D02*
X161620000Y-90200000D01*
X161620000Y-90800000D02*
X161620000Y-93120000D01*
X161620000Y-93120000D02*
X152380000Y-93120000D01*
X162230000Y-90940000D02*
X161620000Y-90500000D01*
X162230000Y-90060000D01*
X162230000Y-90940000D01*
G36*
X162230000Y-90940000D02*
G01*
X161620000Y-90500000D01*
X162230000Y-90060000D01*
X162230000Y-90940000D01*
G37*
X108230000Y-53630000D02*
X114770000Y-53630000D01*
X108230000Y-53960000D02*
X108230000Y-53630000D01*
X108230000Y-56040000D02*
X108230000Y-56370000D01*
X108230000Y-56370000D02*
X114770000Y-56370000D01*
X114770000Y-53630000D02*
X114770000Y-53960000D01*
X114770000Y-56370000D02*
X114770000Y-56040000D01*
X132630000Y-59730000D02*
X132630000Y-66270000D01*
X132630000Y-66270000D02*
X132960000Y-66270000D01*
X132960000Y-59730000D02*
X132630000Y-59730000D01*
X135040000Y-59730000D02*
X135370000Y-59730000D01*
X135370000Y-59730000D02*
X135370000Y-66270000D01*
X135370000Y-66270000D02*
X135040000Y-66270000D01*
M02*
