%TF.GenerationSoftware,KiCad,Pcbnew,9.0.7*%
%TF.CreationDate,2026-01-29T23:32:27-08:00*%
%TF.ProjectId,encoders,656e636f-6465-4727-932e-6b696361645f,rev?*%
%TF.SameCoordinates,Original*%
%TF.FileFunction,Legend,Bot*%
%TF.FilePolarity,Positive*%
%FSLAX46Y46*%
G04 Gerber Fmt 4.6, Leading zero omitted, Abs format (unit mm)*
G04 Created by KiCad (PCBNEW 9.0.7) date 2026-01-29 23:32:27*
%MOMM*%
%LPD*%
G01*
G04 APERTURE LIST*
%ADD10C,0.150000*%
%ADD11C,0.120000*%
G04 APERTURE END LIST*
D10*
X146163220Y-86869819D02*
X146163220Y-85869819D01*
X145734649Y-86869819D02*
X145734649Y-86346009D01*
X145734649Y-86346009D02*
X145782268Y-86250771D01*
X145782268Y-86250771D02*
X145877506Y-86203152D01*
X145877506Y-86203152D02*
X146020363Y-86203152D01*
X146020363Y-86203152D02*
X146115601Y-86250771D01*
X146115601Y-86250771D02*
X146163220Y-86298390D01*
X145401315Y-86203152D02*
X145020363Y-86203152D01*
X145258458Y-85869819D02*
X145258458Y-86726961D01*
X145258458Y-86726961D02*
X145210839Y-86822200D01*
X145210839Y-86822200D02*
X145115601Y-86869819D01*
X145115601Y-86869819D02*
X145020363Y-86869819D01*
X144829886Y-86203152D02*
X144448934Y-86203152D01*
X144687029Y-85869819D02*
X144687029Y-86726961D01*
X144687029Y-86726961D02*
X144639410Y-86822200D01*
X144639410Y-86822200D02*
X144544172Y-86869819D01*
X144544172Y-86869819D02*
X144448934Y-86869819D01*
X144115600Y-86203152D02*
X144115600Y-87203152D01*
X144115600Y-86250771D02*
X144020362Y-86203152D01*
X144020362Y-86203152D02*
X143829886Y-86203152D01*
X143829886Y-86203152D02*
X143734648Y-86250771D01*
X143734648Y-86250771D02*
X143687029Y-86298390D01*
X143687029Y-86298390D02*
X143639410Y-86393628D01*
X143639410Y-86393628D02*
X143639410Y-86679342D01*
X143639410Y-86679342D02*
X143687029Y-86774580D01*
X143687029Y-86774580D02*
X143734648Y-86822200D01*
X143734648Y-86822200D02*
X143829886Y-86869819D01*
X143829886Y-86869819D02*
X144020362Y-86869819D01*
X144020362Y-86869819D02*
X144115600Y-86822200D01*
X143258457Y-86822200D02*
X143163219Y-86869819D01*
X143163219Y-86869819D02*
X142972743Y-86869819D01*
X142972743Y-86869819D02*
X142877505Y-86822200D01*
X142877505Y-86822200D02*
X142829886Y-86726961D01*
X142829886Y-86726961D02*
X142829886Y-86679342D01*
X142829886Y-86679342D02*
X142877505Y-86584104D01*
X142877505Y-86584104D02*
X142972743Y-86536485D01*
X142972743Y-86536485D02*
X143115600Y-86536485D01*
X143115600Y-86536485D02*
X143210838Y-86488866D01*
X143210838Y-86488866D02*
X143258457Y-86393628D01*
X143258457Y-86393628D02*
X143258457Y-86346009D01*
X143258457Y-86346009D02*
X143210838Y-86250771D01*
X143210838Y-86250771D02*
X143115600Y-86203152D01*
X143115600Y-86203152D02*
X142972743Y-86203152D01*
X142972743Y-86203152D02*
X142877505Y-86250771D01*
X142401314Y-86774580D02*
X142353695Y-86822200D01*
X142353695Y-86822200D02*
X142401314Y-86869819D01*
X142401314Y-86869819D02*
X142448933Y-86822200D01*
X142448933Y-86822200D02*
X142401314Y-86774580D01*
X142401314Y-86774580D02*
X142401314Y-86869819D01*
X142401314Y-86250771D02*
X142353695Y-86298390D01*
X142353695Y-86298390D02*
X142401314Y-86346009D01*
X142401314Y-86346009D02*
X142448933Y-86298390D01*
X142448933Y-86298390D02*
X142401314Y-86250771D01*
X142401314Y-86250771D02*
X142401314Y-86346009D01*
X141210839Y-85822200D02*
X142067981Y-87107914D01*
X140163220Y-85822200D02*
X141020362Y-87107914D01*
X139401315Y-86203152D02*
X139401315Y-87012676D01*
X139401315Y-87012676D02*
X139448934Y-87107914D01*
X139448934Y-87107914D02*
X139496553Y-87155533D01*
X139496553Y-87155533D02*
X139591791Y-87203152D01*
X139591791Y-87203152D02*
X139734648Y-87203152D01*
X139734648Y-87203152D02*
X139829886Y-87155533D01*
X139401315Y-86822200D02*
X139496553Y-86869819D01*
X139496553Y-86869819D02*
X139687029Y-86869819D01*
X139687029Y-86869819D02*
X139782267Y-86822200D01*
X139782267Y-86822200D02*
X139829886Y-86774580D01*
X139829886Y-86774580D02*
X139877505Y-86679342D01*
X139877505Y-86679342D02*
X139877505Y-86393628D01*
X139877505Y-86393628D02*
X139829886Y-86298390D01*
X139829886Y-86298390D02*
X139782267Y-86250771D01*
X139782267Y-86250771D02*
X139687029Y-86203152D01*
X139687029Y-86203152D02*
X139496553Y-86203152D01*
X139496553Y-86203152D02*
X139401315Y-86250771D01*
X138925124Y-86869819D02*
X138925124Y-86203152D01*
X138925124Y-85869819D02*
X138972743Y-85917438D01*
X138972743Y-85917438D02*
X138925124Y-85965057D01*
X138925124Y-85965057D02*
X138877505Y-85917438D01*
X138877505Y-85917438D02*
X138925124Y-85869819D01*
X138925124Y-85869819D02*
X138925124Y-85965057D01*
X138591791Y-86203152D02*
X138210839Y-86203152D01*
X138448934Y-85869819D02*
X138448934Y-86726961D01*
X138448934Y-86726961D02*
X138401315Y-86822200D01*
X138401315Y-86822200D02*
X138306077Y-86869819D01*
X138306077Y-86869819D02*
X138210839Y-86869819D01*
X137877505Y-86869819D02*
X137877505Y-85869819D01*
X137448934Y-86869819D02*
X137448934Y-86346009D01*
X137448934Y-86346009D02*
X137496553Y-86250771D01*
X137496553Y-86250771D02*
X137591791Y-86203152D01*
X137591791Y-86203152D02*
X137734648Y-86203152D01*
X137734648Y-86203152D02*
X137829886Y-86250771D01*
X137829886Y-86250771D02*
X137877505Y-86298390D01*
X136544172Y-86203152D02*
X136544172Y-86869819D01*
X136972743Y-86203152D02*
X136972743Y-86726961D01*
X136972743Y-86726961D02*
X136925124Y-86822200D01*
X136925124Y-86822200D02*
X136829886Y-86869819D01*
X136829886Y-86869819D02*
X136687029Y-86869819D01*
X136687029Y-86869819D02*
X136591791Y-86822200D01*
X136591791Y-86822200D02*
X136544172Y-86774580D01*
X136067981Y-86869819D02*
X136067981Y-85869819D01*
X136067981Y-86250771D02*
X135972743Y-86203152D01*
X135972743Y-86203152D02*
X135782267Y-86203152D01*
X135782267Y-86203152D02*
X135687029Y-86250771D01*
X135687029Y-86250771D02*
X135639410Y-86298390D01*
X135639410Y-86298390D02*
X135591791Y-86393628D01*
X135591791Y-86393628D02*
X135591791Y-86679342D01*
X135591791Y-86679342D02*
X135639410Y-86774580D01*
X135639410Y-86774580D02*
X135687029Y-86822200D01*
X135687029Y-86822200D02*
X135782267Y-86869819D01*
X135782267Y-86869819D02*
X135972743Y-86869819D01*
X135972743Y-86869819D02*
X136067981Y-86822200D01*
X135163219Y-86774580D02*
X135115600Y-86822200D01*
X135115600Y-86822200D02*
X135163219Y-86869819D01*
X135163219Y-86869819D02*
X135210838Y-86822200D01*
X135210838Y-86822200D02*
X135163219Y-86774580D01*
X135163219Y-86774580D02*
X135163219Y-86869819D01*
X134258458Y-86822200D02*
X134353696Y-86869819D01*
X134353696Y-86869819D02*
X134544172Y-86869819D01*
X134544172Y-86869819D02*
X134639410Y-86822200D01*
X134639410Y-86822200D02*
X134687029Y-86774580D01*
X134687029Y-86774580D02*
X134734648Y-86679342D01*
X134734648Y-86679342D02*
X134734648Y-86393628D01*
X134734648Y-86393628D02*
X134687029Y-86298390D01*
X134687029Y-86298390D02*
X134639410Y-86250771D01*
X134639410Y-86250771D02*
X134544172Y-86203152D01*
X134544172Y-86203152D02*
X134353696Y-86203152D01*
X134353696Y-86203152D02*
X134258458Y-86250771D01*
X133687029Y-86869819D02*
X133782267Y-86822200D01*
X133782267Y-86822200D02*
X133829886Y-86774580D01*
X133829886Y-86774580D02*
X133877505Y-86679342D01*
X133877505Y-86679342D02*
X133877505Y-86393628D01*
X133877505Y-86393628D02*
X133829886Y-86298390D01*
X133829886Y-86298390D02*
X133782267Y-86250771D01*
X133782267Y-86250771D02*
X133687029Y-86203152D01*
X133687029Y-86203152D02*
X133544172Y-86203152D01*
X133544172Y-86203152D02*
X133448934Y-86250771D01*
X133448934Y-86250771D02*
X133401315Y-86298390D01*
X133401315Y-86298390D02*
X133353696Y-86393628D01*
X133353696Y-86393628D02*
X133353696Y-86679342D01*
X133353696Y-86679342D02*
X133401315Y-86774580D01*
X133401315Y-86774580D02*
X133448934Y-86822200D01*
X133448934Y-86822200D02*
X133544172Y-86869819D01*
X133544172Y-86869819D02*
X133687029Y-86869819D01*
X132925124Y-86869819D02*
X132925124Y-86203152D01*
X132925124Y-86298390D02*
X132877505Y-86250771D01*
X132877505Y-86250771D02*
X132782267Y-86203152D01*
X132782267Y-86203152D02*
X132639410Y-86203152D01*
X132639410Y-86203152D02*
X132544172Y-86250771D01*
X132544172Y-86250771D02*
X132496553Y-86346009D01*
X132496553Y-86346009D02*
X132496553Y-86869819D01*
X132496553Y-86346009D02*
X132448934Y-86250771D01*
X132448934Y-86250771D02*
X132353696Y-86203152D01*
X132353696Y-86203152D02*
X132210839Y-86203152D01*
X132210839Y-86203152D02*
X132115600Y-86250771D01*
X132115600Y-86250771D02*
X132067981Y-86346009D01*
X132067981Y-86346009D02*
X132067981Y-86869819D01*
X130877506Y-85822200D02*
X131734648Y-87107914D01*
X130591791Y-86822200D02*
X130496553Y-86869819D01*
X130496553Y-86869819D02*
X130306077Y-86869819D01*
X130306077Y-86869819D02*
X130210839Y-86822200D01*
X130210839Y-86822200D02*
X130163220Y-86726961D01*
X130163220Y-86726961D02*
X130163220Y-86679342D01*
X130163220Y-86679342D02*
X130210839Y-86584104D01*
X130210839Y-86584104D02*
X130306077Y-86536485D01*
X130306077Y-86536485D02*
X130448934Y-86536485D01*
X130448934Y-86536485D02*
X130544172Y-86488866D01*
X130544172Y-86488866D02*
X130591791Y-86393628D01*
X130591791Y-86393628D02*
X130591791Y-86346009D01*
X130591791Y-86346009D02*
X130544172Y-86250771D01*
X130544172Y-86250771D02*
X130448934Y-86203152D01*
X130448934Y-86203152D02*
X130306077Y-86203152D01*
X130306077Y-86203152D02*
X130210839Y-86250771D01*
X129306077Y-86822200D02*
X129401315Y-86869819D01*
X129401315Y-86869819D02*
X129591791Y-86869819D01*
X129591791Y-86869819D02*
X129687029Y-86822200D01*
X129687029Y-86822200D02*
X129734648Y-86774580D01*
X129734648Y-86774580D02*
X129782267Y-86679342D01*
X129782267Y-86679342D02*
X129782267Y-86393628D01*
X129782267Y-86393628D02*
X129734648Y-86298390D01*
X129734648Y-86298390D02*
X129687029Y-86250771D01*
X129687029Y-86250771D02*
X129591791Y-86203152D01*
X129591791Y-86203152D02*
X129401315Y-86203152D01*
X129401315Y-86203152D02*
X129306077Y-86250771D01*
X128734648Y-86869819D02*
X128829886Y-86822200D01*
X128829886Y-86822200D02*
X128877505Y-86774580D01*
X128877505Y-86774580D02*
X128925124Y-86679342D01*
X128925124Y-86679342D02*
X128925124Y-86393628D01*
X128925124Y-86393628D02*
X128877505Y-86298390D01*
X128877505Y-86298390D02*
X128829886Y-86250771D01*
X128829886Y-86250771D02*
X128734648Y-86203152D01*
X128734648Y-86203152D02*
X128591791Y-86203152D01*
X128591791Y-86203152D02*
X128496553Y-86250771D01*
X128496553Y-86250771D02*
X128448934Y-86298390D01*
X128448934Y-86298390D02*
X128401315Y-86393628D01*
X128401315Y-86393628D02*
X128401315Y-86679342D01*
X128401315Y-86679342D02*
X128448934Y-86774580D01*
X128448934Y-86774580D02*
X128496553Y-86822200D01*
X128496553Y-86822200D02*
X128591791Y-86869819D01*
X128591791Y-86869819D02*
X128734648Y-86869819D01*
X128115600Y-86203152D02*
X127734648Y-86203152D01*
X127972743Y-85869819D02*
X127972743Y-86726961D01*
X127972743Y-86726961D02*
X127925124Y-86822200D01*
X127925124Y-86822200D02*
X127829886Y-86869819D01*
X127829886Y-86869819D02*
X127734648Y-86869819D01*
X127544171Y-86203152D02*
X127163219Y-86203152D01*
X127401314Y-85869819D02*
X127401314Y-86726961D01*
X127401314Y-86726961D02*
X127353695Y-86822200D01*
X127353695Y-86822200D02*
X127258457Y-86869819D01*
X127258457Y-86869819D02*
X127163219Y-86869819D01*
X126972742Y-86203152D02*
X126591790Y-86203152D01*
X126829885Y-86869819D02*
X126829885Y-86012676D01*
X126829885Y-86012676D02*
X126782266Y-85917438D01*
X126782266Y-85917438D02*
X126687028Y-85869819D01*
X126687028Y-85869819D02*
X126591790Y-85869819D01*
X125877504Y-86822200D02*
X125972742Y-86869819D01*
X125972742Y-86869819D02*
X126163218Y-86869819D01*
X126163218Y-86869819D02*
X126258456Y-86822200D01*
X126258456Y-86822200D02*
X126306075Y-86726961D01*
X126306075Y-86726961D02*
X126306075Y-86346009D01*
X126306075Y-86346009D02*
X126258456Y-86250771D01*
X126258456Y-86250771D02*
X126163218Y-86203152D01*
X126163218Y-86203152D02*
X125972742Y-86203152D01*
X125972742Y-86203152D02*
X125877504Y-86250771D01*
X125877504Y-86250771D02*
X125829885Y-86346009D01*
X125829885Y-86346009D02*
X125829885Y-86441247D01*
X125829885Y-86441247D02*
X126306075Y-86536485D01*
X125258456Y-86869819D02*
X125353694Y-86822200D01*
X125353694Y-86822200D02*
X125401313Y-86726961D01*
X125401313Y-86726961D02*
X125401313Y-85869819D01*
X124448932Y-86869819D02*
X124448932Y-85869819D01*
X124448932Y-86822200D02*
X124544170Y-86869819D01*
X124544170Y-86869819D02*
X124734646Y-86869819D01*
X124734646Y-86869819D02*
X124829884Y-86822200D01*
X124829884Y-86822200D02*
X124877503Y-86774580D01*
X124877503Y-86774580D02*
X124925122Y-86679342D01*
X124925122Y-86679342D02*
X124925122Y-86393628D01*
X124925122Y-86393628D02*
X124877503Y-86298390D01*
X124877503Y-86298390D02*
X124829884Y-86250771D01*
X124829884Y-86250771D02*
X124734646Y-86203152D01*
X124734646Y-86203152D02*
X124544170Y-86203152D01*
X124544170Y-86203152D02*
X124448932Y-86250771D01*
X123972741Y-86869819D02*
X123972741Y-86203152D01*
X123972741Y-86298390D02*
X123925122Y-86250771D01*
X123925122Y-86250771D02*
X123829884Y-86203152D01*
X123829884Y-86203152D02*
X123687027Y-86203152D01*
X123687027Y-86203152D02*
X123591789Y-86250771D01*
X123591789Y-86250771D02*
X123544170Y-86346009D01*
X123544170Y-86346009D02*
X123544170Y-86869819D01*
X123544170Y-86346009D02*
X123496551Y-86250771D01*
X123496551Y-86250771D02*
X123401313Y-86203152D01*
X123401313Y-86203152D02*
X123258456Y-86203152D01*
X123258456Y-86203152D02*
X123163217Y-86250771D01*
X123163217Y-86250771D02*
X123115598Y-86346009D01*
X123115598Y-86346009D02*
X123115598Y-86869819D01*
X122210837Y-86869819D02*
X122210837Y-86346009D01*
X122210837Y-86346009D02*
X122258456Y-86250771D01*
X122258456Y-86250771D02*
X122353694Y-86203152D01*
X122353694Y-86203152D02*
X122544170Y-86203152D01*
X122544170Y-86203152D02*
X122639408Y-86250771D01*
X122210837Y-86822200D02*
X122306075Y-86869819D01*
X122306075Y-86869819D02*
X122544170Y-86869819D01*
X122544170Y-86869819D02*
X122639408Y-86822200D01*
X122639408Y-86822200D02*
X122687027Y-86726961D01*
X122687027Y-86726961D02*
X122687027Y-86631723D01*
X122687027Y-86631723D02*
X122639408Y-86536485D01*
X122639408Y-86536485D02*
X122544170Y-86488866D01*
X122544170Y-86488866D02*
X122306075Y-86488866D01*
X122306075Y-86488866D02*
X122210837Y-86441247D01*
X121734646Y-86203152D02*
X121734646Y-86869819D01*
X121734646Y-86298390D02*
X121687027Y-86250771D01*
X121687027Y-86250771D02*
X121591789Y-86203152D01*
X121591789Y-86203152D02*
X121448932Y-86203152D01*
X121448932Y-86203152D02*
X121353694Y-86250771D01*
X121353694Y-86250771D02*
X121306075Y-86346009D01*
X121306075Y-86346009D02*
X121306075Y-86869819D01*
X120115599Y-85822200D02*
X120972741Y-87107914D01*
X119353694Y-86822200D02*
X119448932Y-86869819D01*
X119448932Y-86869819D02*
X119639408Y-86869819D01*
X119639408Y-86869819D02*
X119734646Y-86822200D01*
X119734646Y-86822200D02*
X119782265Y-86774580D01*
X119782265Y-86774580D02*
X119829884Y-86679342D01*
X119829884Y-86679342D02*
X119829884Y-86393628D01*
X119829884Y-86393628D02*
X119782265Y-86298390D01*
X119782265Y-86298390D02*
X119734646Y-86250771D01*
X119734646Y-86250771D02*
X119639408Y-86203152D01*
X119639408Y-86203152D02*
X119448932Y-86203152D01*
X119448932Y-86203152D02*
X119353694Y-86250771D01*
X118782265Y-86869819D02*
X118877503Y-86822200D01*
X118877503Y-86822200D02*
X118925122Y-86726961D01*
X118925122Y-86726961D02*
X118925122Y-85869819D01*
X118258455Y-86869819D02*
X118353693Y-86822200D01*
X118353693Y-86822200D02*
X118401312Y-86774580D01*
X118401312Y-86774580D02*
X118448931Y-86679342D01*
X118448931Y-86679342D02*
X118448931Y-86393628D01*
X118448931Y-86393628D02*
X118401312Y-86298390D01*
X118401312Y-86298390D02*
X118353693Y-86250771D01*
X118353693Y-86250771D02*
X118258455Y-86203152D01*
X118258455Y-86203152D02*
X118115598Y-86203152D01*
X118115598Y-86203152D02*
X118020360Y-86250771D01*
X118020360Y-86250771D02*
X117972741Y-86298390D01*
X117972741Y-86298390D02*
X117925122Y-86393628D01*
X117925122Y-86393628D02*
X117925122Y-86679342D01*
X117925122Y-86679342D02*
X117972741Y-86774580D01*
X117972741Y-86774580D02*
X118020360Y-86822200D01*
X118020360Y-86822200D02*
X118115598Y-86869819D01*
X118115598Y-86869819D02*
X118258455Y-86869819D01*
X117544169Y-86822200D02*
X117448931Y-86869819D01*
X117448931Y-86869819D02*
X117258455Y-86869819D01*
X117258455Y-86869819D02*
X117163217Y-86822200D01*
X117163217Y-86822200D02*
X117115598Y-86726961D01*
X117115598Y-86726961D02*
X117115598Y-86679342D01*
X117115598Y-86679342D02*
X117163217Y-86584104D01*
X117163217Y-86584104D02*
X117258455Y-86536485D01*
X117258455Y-86536485D02*
X117401312Y-86536485D01*
X117401312Y-86536485D02*
X117496550Y-86488866D01*
X117496550Y-86488866D02*
X117544169Y-86393628D01*
X117544169Y-86393628D02*
X117544169Y-86346009D01*
X117544169Y-86346009D02*
X117496550Y-86250771D01*
X117496550Y-86250771D02*
X117401312Y-86203152D01*
X117401312Y-86203152D02*
X117258455Y-86203152D01*
X117258455Y-86203152D02*
X117163217Y-86250771D01*
X116687026Y-86869819D02*
X116687026Y-86203152D01*
X116687026Y-85869819D02*
X116734645Y-85917438D01*
X116734645Y-85917438D02*
X116687026Y-85965057D01*
X116687026Y-85965057D02*
X116639407Y-85917438D01*
X116639407Y-85917438D02*
X116687026Y-85869819D01*
X116687026Y-85869819D02*
X116687026Y-85965057D01*
X116210836Y-86203152D02*
X116210836Y-86869819D01*
X116210836Y-86298390D02*
X116163217Y-86250771D01*
X116163217Y-86250771D02*
X116067979Y-86203152D01*
X116067979Y-86203152D02*
X115925122Y-86203152D01*
X115925122Y-86203152D02*
X115829884Y-86250771D01*
X115829884Y-86250771D02*
X115782265Y-86346009D01*
X115782265Y-86346009D02*
X115782265Y-86869819D01*
X114877503Y-86203152D02*
X114877503Y-86869819D01*
X115306074Y-86203152D02*
X115306074Y-86726961D01*
X115306074Y-86726961D02*
X115258455Y-86822200D01*
X115258455Y-86822200D02*
X115163217Y-86869819D01*
X115163217Y-86869819D02*
X115020360Y-86869819D01*
X115020360Y-86869819D02*
X114925122Y-86822200D01*
X114925122Y-86822200D02*
X114877503Y-86774580D01*
X114544169Y-86203152D02*
X114163217Y-86203152D01*
X114401312Y-86869819D02*
X114401312Y-86012676D01*
X114401312Y-86012676D02*
X114353693Y-85917438D01*
X114353693Y-85917438D02*
X114258455Y-85869819D01*
X114258455Y-85869819D02*
X114163217Y-85869819D01*
X108703333Y-50724819D02*
X108703333Y-51439104D01*
X108703333Y-51439104D02*
X108750952Y-51581961D01*
X108750952Y-51581961D02*
X108846190Y-51677200D01*
X108846190Y-51677200D02*
X108989047Y-51724819D01*
X108989047Y-51724819D02*
X109084285Y-51724819D01*
X107703333Y-51724819D02*
X108274761Y-51724819D01*
X107989047Y-51724819D02*
X107989047Y-50724819D01*
X107989047Y-50724819D02*
X108084285Y-50867676D01*
X108084285Y-50867676D02*
X108179523Y-50962914D01*
X108179523Y-50962914D02*
X108274761Y-51010533D01*
D11*
X107040000Y-44900000D02*
X107040000Y-47500000D01*
X107040000Y-44900000D02*
X157960000Y-44900000D01*
X107040000Y-47500000D02*
X109640000Y-47500000D01*
X107040000Y-48770000D02*
X107040000Y-50100000D01*
X107040000Y-50100000D02*
X108370000Y-50100000D01*
X109640000Y-47500000D02*
X109640000Y-50100000D01*
X109640000Y-50100000D02*
X157960000Y-50100000D01*
X157960000Y-44900000D02*
X157960000Y-50100000D01*
M02*
