M48
; DRILL file {KiCad 9.0.7} date 2026-01-29T23:33:52-0800
; FORMAT={-:-/ absolute / metric / decimal}
; #@! TF.CreationDate,2026-01-29T23:33:52-08:00
; #@! TF.GenerationSoftware,Kicad,Pcbnew,9.0.7
; #@! TF.FileFunction,Plated,1,2,PTH
FMAT,2
METRIC
; #@! TA.AperFunction,Plated,PTH,ComponentDrill
T1C0.800
; #@! TA.AperFunction,Plated,PTH,ComponentDrill
T2C1.000
; #@! TA.AperFunction,Plated,PTH,ComponentDrill
T3C1.300
%
G90
G05
T1
X107.69Y-55.0
X107.69Y-58.5
X115.31Y-55.0
X115.31Y-58.5
X125.0Y-59.19
X125.0Y-66.81
X125.0Y-71.38
X125.0Y-79.0
X128.0Y-59.19
X128.0Y-66.81
X128.0Y-71.38
X128.0Y-79.0
X131.0Y-59.19
X131.0Y-66.81
X131.0Y-71.38
X131.0Y-79.0
X134.0Y-59.19
X134.0Y-66.81
X134.0Y-71.38
X134.0Y-79.0
T2
X108.37Y-46.23
X108.37Y-48.77
X110.91Y-46.23
X110.91Y-48.77
X113.45Y-46.23
X113.45Y-48.77
X115.99Y-46.23
X115.99Y-48.77
X118.53Y-46.23
X118.53Y-48.77
X121.07Y-46.23
X121.07Y-48.77
X123.61Y-46.23
X123.61Y-48.77
X126.15Y-46.23
X126.15Y-48.77
X128.69Y-46.23
X128.69Y-48.77
X131.23Y-46.23
X131.23Y-48.77
X133.77Y-46.23
X133.77Y-48.77
X136.31Y-46.23
X136.31Y-48.77
X138.85Y-46.23
X138.85Y-48.77
X141.39Y-46.23
X141.39Y-48.77
X143.93Y-46.23
X143.93Y-48.77
X146.47Y-46.23
X146.47Y-48.77
X149.01Y-46.23
X149.01Y-48.77
X151.55Y-46.23
X151.55Y-48.77
X154.09Y-46.23
X154.09Y-48.77
X156.63Y-46.23
X156.63Y-48.77
T3
X112.0Y-92.5
X112.132Y-65.0
X112.132Y-70.0
X112.132Y-75.0
X112.132Y-80.0
X117.0Y-92.5
X122.0Y-92.5
X127.0Y-92.5
X133.5Y-92.5
X138.5Y-92.5
X143.5Y-92.5
X148.5Y-92.5
X156.5Y-54.0
X156.5Y-59.0
X156.5Y-64.0
X156.5Y-69.0
X156.5Y-75.5
X156.5Y-80.5
X156.5Y-85.5
X156.5Y-90.5
M30
